<svg width="16" height="16" viewBox="0 0 16 16" fill="none" xmlns="http://www.w3.org/2000/svg">
<g id="actionscript">
<g id="actionscript_2">
<path id="Shape" fill-rule="evenodd" clip-rule="evenodd" d="M10.1747 5.245C9.94724 5.245 9.73172 5.27399 9.52819 5.33191C9.32468 5.38752 9.14476 5.47511 8.98914 5.59558C8.83551 5.71606 8.71369 5.86983 8.62391 6.05749C8.53412 6.24284 8.48914 6.46597 8.48914 6.72544C8.48914 7.05676 8.57163 7.33909 8.73524 7.57309C8.90084 7.8071 9.15102 8.00466 9.48624 8.16684C9.61792 8.2294 9.74068 8.29117 9.8544 8.35141C9.96813 8.41165 10.0656 8.47404 10.1474 8.53891C10.2312 8.60379 10.2968 8.67437 10.3446 8.75083C10.3925 8.82729 10.4169 8.91426 10.4169 9.01157C10.4169 9.08339 10.4019 9.15116 10.372 9.21372C10.3421 9.27396 10.2961 9.32656 10.2343 9.3729C10.1744 9.41692 10.0985 9.4519 10.0067 9.47739C9.91696 9.50288 9.81107 9.51548 9.68936 9.51548C9.48186 9.51548 9.27666 9.47388 9.07316 9.39048C8.86965 9.30475 8.68132 9.17778 8.50771 9.00864V10.12C8.66334 10.2127 8.847 10.2826 9.05851 10.329C9.272 10.3753 9.49593 10.3983 9.73136 10.3983C9.96081 10.3983 10.1782 10.3731 10.3837 10.3221C10.5912 10.2712 10.773 10.188 10.9286 10.0721C11.0842 9.95398 11.207 9.80083 11.2968 9.61316C11.3886 9.42317 11.4345 9.18904 11.4345 8.91101C11.4345 8.70944 11.4082 8.53329 11.3563 8.38271C11.3045 8.22979 11.2295 8.09462 11.1317 7.97646C11.034 7.8583 10.9169 7.75273 10.7792 7.66005C10.6435 7.56506 10.4898 7.47588 10.3183 7.39247C10.1926 7.33223 10.0801 7.27425 9.98037 7.21864C9.88061 7.16072 9.79532 7.10274 9.72548 7.04481C9.65565 6.98457 9.60226 6.92219 9.56435 6.85731C9.52644 6.79012 9.50673 6.71416 9.50673 6.63075C9.50673 6.55429 9.52359 6.48689 9.55751 6.42665C9.59143 6.3641 9.64019 6.31052 9.70204 6.2665C9.76389 6.22247 9.8398 6.18908 9.92958 6.16591C10.0194 6.14042 10.1187 6.12685 10.2284 6.12685C10.3082 6.12685 10.3916 6.13443 10.4794 6.14833C10.5692 6.16223 10.6591 6.18364 10.7489 6.21376C10.8387 6.24157 10.9259 6.27814 11.0097 6.32216C11.0955 6.36618 11.1742 6.41658 11.246 6.47451V5.43546C11.1003 5.37058 10.9411 5.323 10.7675 5.29288C10.5959 5.26044 10.3982 5.24503 10.1747 5.24503L10.1747 5.245ZM5.788 5.32801L4.2265 10.3114H5.2734L5.57614 9.20301H7.10249L7.40718 10.3114H8.46088L6.93453 5.32801H5.78803H5.788ZM6.34758 6.21766H6.32415L6.32413 6.21763C6.31415 6.3636 6.28884 6.50855 6.24893 6.6522L5.78214 8.34071H6.88079L6.41985 6.6659C6.38593 6.54079 6.36155 6.39143 6.34758 6.21766Z" fill="#D14748"/>
<path id="Path" fill-rule="evenodd" clip-rule="evenodd" d="M4.37204 3.01555C3.79344 3.01555 3.37489 3.1707 3.11714 3.48039C2.85939 3.7864 2.7314 4.31954 2.7314 5.07904V6.31244C2.7314 7.01664 2.53058 7.36809 2.1308 7.36809V8.38569C2.53057 8.38569 2.7314 8.72489 2.7314 9.40329V10.7304C2.7314 11.4862 2.86067 12.0116 3.12105 12.3066C3.38142 12.6015 3.79865 12.749 4.37205 12.749V11.7148C4.14849 11.7148 3.98664 11.6394 3.8867 11.4882C3.78939 11.3371 3.74119 11.081 3.74119 10.7197V9.58586C3.74119 8.68256 3.53879 8.11716 3.13379 7.88861V7.86615C3.53882 7.63388 3.74119 7.0752 3.74119 6.19035V5.0126C3.74119 4.3711 3.95124 4.0497 4.37204 4.0497V3.0155V3.01555Z" fill="#6A9FB5"/>
<path id="Path_2" fill-rule="evenodd" clip-rule="evenodd" d="M11.702 3.01551V4.04971C12.1228 4.04971 12.3329 4.37109 12.3329 5.01261V6.14641C12.3329 7.06811 12.534 7.64461 12.9364 7.87686V7.89932C12.534 8.12053 12.3329 8.67147 12.3329 9.55262V10.7304C12.3329 11.088 12.2834 11.3407 12.1835 11.4882C12.0835 11.6393 11.923 11.7147 11.702 11.7147V12.7489C12.278 12.7489 12.694 12.6015 12.9491 12.3066C13.2068 12.0116 13.3348 11.4751 13.3348 10.6971V9.4198C13.3348 8.73035 13.5369 8.3856 13.9393 8.3856V7.368C13.5369 7.368 13.3348 7.01989 13.3348 6.3231V5.0565C13.3348 4.31175 13.2068 3.78635 12.9491 3.48035C12.6913 3.17065 12.2754 3.0155 11.702 3.0155L11.702 3.01551Z" fill="#6A9FB5"/>
</g>
</g>
</svg>
