<svg width="16" height="16" viewBox="0 0 16 16" fill="none" xmlns="http://www.w3.org/2000/svg">
<g id="ai">
<g id="Group">
<path id="Shape" d="M8 2.5C11.0376 2.5 13.5 4.96243 13.5 8C13.5 11.0376 11.0376 13.5 8 13.5C4.96243 13.5 2.5 11.0376 2.5 8C2.5 4.96243 4.96243 2.5 8 2.5Z" fill="#212431" stroke="#555B77"/>
<path id="Path" fill-rule="evenodd" clip-rule="evenodd" d="M9.58479 6.38533C9.70047 6.38533 9.79897 6.34356 9.88029 6.26C9.96161 6.17645 10.0025 6.07911 10.0029 5.968C10.0029 5.84978 9.96205 5.75089 9.88029 5.67133C9.79853 5.59178 9.70003 5.55178 9.58479 5.55133C9.46955 5.55089 9.37279 5.59089 9.29451 5.67133C9.21623 5.75178 9.17709 5.85067 9.17709 5.968C9.17709 6.08533 9.21623 6.18422 9.29451 6.26467C9.37279 6.34511 9.46955 6.38511 9.58479 6.38467V6.38467V6.38533Z" fill="#F5DFA5"/>
<path id="Path_2" fill-rule="evenodd" clip-rule="evenodd" d="M9.18753 6.75H9.9827V9.81267H9.18753V6.75V6.75Z" fill="white"/>
<path id="Combined Shape" fill-rule="evenodd" clip-rule="evenodd" d="M7.7296 8.78133H6.64936L6.64871 8.78199L6.35321 9.81333H5.61935L6.65915 6.18799V5.79199H7.64806L8.8307 9.81266H8.01531L7.7296 8.78133ZM7.57697 8.08333L7.17971 6.49999H7.17906L6.7818 8.08333H7.57697Z" fill="white"/>
</g>
</g>
</svg>
