<svg width="16" height="16" viewBox="0 0 16 16" fill="none" xmlns="http://www.w3.org/2000/svg">
<g id="android">
<g id="android_2">
<path id="Shape" fill-rule="evenodd" clip-rule="evenodd" d="M9.67499 3.33072L10.2967 2.70902C10.3869 2.61885 10.3869 2.46699 10.2967 2.37207C10.2018 2.2819 10.0499 2.2819 9.95974 2.37207L9.25739 3.07442C8.87773 2.88934 8.45059 2.78019 7.99974 2.78019C7.54415 2.78019 7.11704 2.88934 6.73739 3.07917L6.03029 2.37207C5.94012 2.2819 5.78826 2.2819 5.69809 2.37207C5.60317 2.46699 5.60317 2.61885 5.69809 2.70902L6.31979 3.33072C5.61269 3.85277 5.15234 4.67852 5.15234 5.62767H10.8473C10.8473 4.67852 10.3728 3.84802 9.67514 3.33072H9.67499ZM6.57601 4.67849H7.05059V4.20391H6.57601V4.67849ZM8.94892 4.67849H9.4235V4.20391H8.94892V4.67849ZM11.3219 6.81413C11.3219 6.42099 11.6406 6.10228 12.0338 6.10228C12.4269 6.10228 12.7456 6.42099 12.7456 6.81413V10.1362C12.7456 10.5293 12.4269 10.848 12.0338 10.848C11.6406 10.848 11.3219 10.5293 11.3219 10.1362V6.81413ZM3.96579 6.10228C3.57264 6.10228 3.25394 6.42099 3.25394 6.81413V10.1362C3.25394 10.5293 3.57264 10.848 3.96579 10.848C4.35893 10.848 4.67764 10.5293 4.67764 10.1362V6.81413C4.67764 6.42099 4.35893 6.10228 3.96579 6.10228ZM5.62681 11.3226C5.36471 11.3226 5.15224 11.1101 5.15224 10.848L5.15209 6.10228H10.8471V10.848C10.8471 11.1101 10.6346 11.3226 10.3725 11.3226H9.89794V12.9836C9.89794 13.3768 9.57923 13.6955 9.18609 13.6955C8.79294 13.6955 8.47424 13.3768 8.47424 12.9836V11.3226H7.52509V12.9836C7.52509 13.3768 7.20638 13.6955 6.81324 13.6955C6.62444 13.6955 6.44338 13.6205 6.30988 13.487C6.17638 13.3535 6.10139 13.1724 6.10139 12.9836V11.3226H5.62681Z" fill="#3DB931"/>
</g>
</g>
</svg>
