<svg width="16" height="16" viewBox="0 0 16 16" fill="none" xmlns="http://www.w3.org/2000/svg">
<path d="M6.55097 7.97397H8.74504L7.57797 5.50909L6.55097 7.97397ZM2.75216 3.71909C2.31223 3.87568 2.03924 4.3159 2.09452 4.77959L2.82149 10.8766C2.85948 11.1952 3.04809 11.4763 3.32858 11.6322L7.09996 13.7288C7.40321 13.8973 7.77217 13.8967 8.07482 13.727L11.8743 11.5972C12.1531 11.4409 12.3404 11.1607 12.3783 10.8433L13.1047 4.75074C13.1604 4.28423 12.8837 3.8419 12.4399 3.68772L7.91413 2.11541C7.69912 2.04071 7.46506 2.0416 7.25063 2.11792L2.75216 3.71909ZM9.94824 10.7787L9.19049 9.01018H6.09711L5.40519 10.7787H4.11785L7.56907 3.01919L11.1406 10.7787H9.94824Z" fill="#4C71F6"/>
</svg>
