<svg width="24" height="24" viewBox="0 0 24 24" fill="none" xmlns="http://www.w3.org/2000/svg">
<g id="applescript">
<mask id="mask0" mask-type="alpha" maskUnits="userSpaceOnUse" x="0" y="0" width="24" height="24">
<circle id="Ellipse" cx="12" cy="12" r="12" fill="#3F445A"/>
</mask>
<g mask="url(#mask0)">
<circle id="Ellipse_2" cx="12" cy="12" r="12" fill="#3F445A"/>
<g id="Group">
<path id="&#239;&#163;&#191;" fill-rule="evenodd" clip-rule="evenodd" d="M14.1391 6.19745C13.6493 6.8264 12.7923 7.30006 12.0005 7.20688C11.8291 6.39157 12.3025 5.57626 12.7433 5.05602C13.3065 4.42707 14.1962 4 14.9635 4C15.0125 4.81531 14.7023 5.61509 14.1391 6.19745Z" fill="#CBCEDC"/>
<path id="Path" fill-rule="evenodd" clip-rule="evenodd" d="M14.8901 7.38548C15.4043 7.38548 16.7756 7.53301 17.6245 8.77538C17.5592 8.81421 16.0002 9.63728 16.0002 11.462C16.0736 13.543 17.9674 14.2729 18 14.2729C17.9674 14.3117 17.7143 15.2668 16.9634 16.2684C16.3675 17.1303 15.7063 18 14.7023 18C13.7473 18 13.4045 17.4254 12.3025 17.4254C11.1189 17.4254 10.7843 18 9.87824 18C8.87424 18 8.1641 17.0838 7.53558 16.2296C6.71932 15.1115 6.0255 13.3566 6.00101 11.6717C5.98469 10.7787 6.16427 9.90128 6.62137 9.15586C7.26621 8.11537 8.41714 7.40877 9.67417 7.38548C10.6374 7.35442 11.4944 8.01443 12.0821 8.01443C12.6454 8.01443 13.6983 7.38548 14.8901 7.38548Z" fill="#CBCEDC"/>
</g>
</g>
</g>
</svg>
