<svg width="16" height="16" viewBox="0 0 16 16" fill="none" xmlns="http://www.w3.org/2000/svg">
<g id="applescript">
<g id="Group 2">
<circle id="Ellipse" cx="8" cy="8" r="6" fill="#35394B"/>
<g id="Group">
<path id="&#239;&#163;&#191;" fill-rule="evenodd" clip-rule="evenodd" d="M9.06956 5.09872C8.82469 5.4132 8.39615 5.65003 8.00026 5.60344C7.91456 5.19578 8.15127 4.78813 8.37166 4.52801C8.65327 4.21353 9.09813 4 9.48177 4C9.50626 4.40765 9.35117 4.80754 9.06956 5.09872Z" fill="#CBCEDC"/>
<path id="Path" fill-rule="evenodd" clip-rule="evenodd" d="M9.44503 5.69273C9.70215 5.69273 10.3878 5.7665 10.8123 6.38768C10.7796 6.4071 10.0001 6.81863 10.0001 7.731C10.0368 8.77149 10.9837 9.13644 11 9.13644C10.9837 9.15585 10.8572 9.63339 10.4817 10.1342C10.1837 10.5652 9.85316 11 9.35116 11C8.87365 11 8.70224 10.7127 8.15126 10.7127C7.55947 10.7127 7.39214 11 6.93912 11C6.43712 11 6.08205 10.5419 5.76779 10.1148C5.35966 9.55574 5.01275 8.67831 5.00051 7.83583C4.99234 7.38935 5.08213 6.95063 5.31069 6.57792C5.63311 6.05768 6.20857 5.70438 6.83709 5.69273C7.31868 5.6772 7.74721 6.00721 8.04107 6.00721C8.32268 6.00721 8.84916 5.69273 9.44503 5.69273Z" fill="#CBCEDC"/>
</g>
</g>
</g>
</svg>
