<svg width="16" height="16" viewBox="0 0 16 16" fill="none" xmlns="http://www.w3.org/2000/svg">
<g id="assembly">
<g id="assembly_2">
<path id="Shape" fill-rule="evenodd" clip-rule="evenodd" d="M2.38138 13.7005V2.29836L4.22654 2.29797V3.43786H3.30396V12.5617H4.22654V13.7005H2.38138ZM11.7736 3.43825V2.29836L13.6187 2.29868V13.702H11.7736V12.5621H12.6972V3.43825H11.7736Z" fill="#EE9D5C"/>
<path id="Shape_2" fill-rule="evenodd" clip-rule="evenodd" d="M9.02305 3.76326C9.21925 3.68179 9.45368 3.64056 9.72635 3.64056L9.72637 3.6405C10.0107 3.6405 10.2488 3.6834 10.4416 3.76819C10.6345 3.85133 10.7924 3.97602 10.9155 4.14229C11.0368 4.30523 11.125 4.50641 11.1798 4.74583C11.2347 4.9836 11.2626 5.25926 11.2626 5.57182C11.2626 5.88437 11.2344 6.16403 11.1778 6.41176C11.1213 6.65785 11.0332 6.86035 10.9135 7.01831C10.7904 7.17958 10.6325 7.30129 10.4396 7.38442C10.2467 7.46589 10.009 7.50713 9.72633 7.50713C9.44867 7.50713 9.21125 7.46457 9.01506 7.38143C8.81887 7.2983 8.66059 7.17526 8.53921 7.01232C8.41617 6.84941 8.32672 6.6479 8.27186 6.40681C8.21699 6.16409 8.19005 5.88643 8.19005 5.57385C8.19005 5.25132 8.21832 4.97166 8.27485 4.7339C8.33138 4.49616 8.42117 4.29398 8.5442 4.12938C8.66724 3.96644 8.82685 3.84473 9.02305 3.76326ZM5.93453 3.95579C5.97776 3.88928 6.0027 3.80615 6.00935 3.70639L6.83434 3.70637V6.78093H7.60048V7.42937H5.1215V6.78093H5.90461V4.81768H5.1215V4.21217C5.24121 4.21217 5.35593 4.20552 5.46567 4.19222C5.5754 4.17725 5.66685 4.15231 5.74 4.1174C5.82646 4.07583 5.8913 4.0223 5.93453 3.95579ZM9.72635 4.32691C9.93086 4.32691 10.0772 4.42301 10.1653 4.61422C10.2534 4.80376 10.297 5.12299 10.297 5.57193C10.297 6.01585 10.2521 6.33507 10.1623 6.52964C10.0725 6.72417 9.92754 6.82093 9.72636 6.82093C9.52518 6.82093 9.3792 6.72417 9.28942 6.52964C9.19964 6.33511 9.15475 6.01655 9.15475 5.57597C9.15475 5.12372 9.1993 4.80382 9.28743 4.61427C9.37555 4.42307 9.52186 4.32697 9.72637 4.32697L9.72635 4.32691ZM5.57037 8.61555C5.76657 8.53409 6.001 8.49385 6.27367 8.49385C6.558 8.49385 6.79709 8.53574 6.98996 8.62054C7.18283 8.70367 7.33978 8.82837 7.46282 8.99463C7.58419 9.15758 7.67331 9.35876 7.72817 9.59818C7.78304 9.83594 7.80998 10.1116 7.80998 10.4242C7.80998 10.7367 7.78171 11.0164 7.72518 11.2641C7.66865 11.5102 7.58053 11.7127 7.46082 11.8707C7.33779 12.0319 7.17983 12.1536 6.98697 12.2368C6.79408 12.3182 6.55632 12.3595 6.27368 12.3595C5.99601 12.3595 5.75958 12.3179 5.56338 12.2348C5.36719 12.1516 5.20791 12.0286 5.08654 11.8657C4.9635 11.7027 4.87405 11.5002 4.81918 11.2591C4.76432 11.0164 4.73738 10.7387 4.73738 10.4262C4.73738 10.1036 4.76565 9.82398 4.82218 9.58621C4.87871 9.34845 4.96849 9.14727 5.09153 8.98267C5.21457 8.81973 5.37418 8.69702 5.57037 8.61555ZM9.46197 8.55869L9.46197 8.55873H9.46195L9.46197 8.55869ZM9.46197 8.55873H10.287V11.6333H11.0531V12.2817H8.57412V11.6333H9.35723V9.67102H8.57412V9.06447C8.69383 9.06447 8.80855 9.05782 8.91828 9.04452C9.02802 9.02955 9.11946 9.00461 9.19262 8.9697C9.27908 8.92814 9.34392 8.8746 9.38715 8.80809C9.43037 8.74159 9.45532 8.65847 9.46197 8.55873ZM6.71262 9.46652C6.6245 9.27531 6.47819 9.17921 6.27368 9.17921L6.27369 9.17927C6.06918 9.17927 5.92287 9.27537 5.83475 9.46658C5.74663 9.65612 5.70307 9.97701 5.70307 10.4292C5.70307 10.8698 5.74696 11.1874 5.83674 11.3819C5.92653 11.5765 6.07251 11.6732 6.27369 11.6732C6.47487 11.6732 6.62085 11.5765 6.71063 11.3819C6.80041 11.1874 6.8443 10.8682 6.8443 10.4242C6.8443 9.97529 6.80074 9.65606 6.71262 9.46652Z" fill="#F4BF75"/>
</g>
</g>
</svg>
