<svg width="24" height="24" viewBox="0 0 24 24" fill="none" xmlns="http://www.w3.org/2000/svg">
<g id="bower">
<g id="Group">
<mask id="mask0" mask-type="alpha" maskUnits="userSpaceOnUse" x="0" y="0" width="24" height="24">
<circle id="Ellipse" cx="12" cy="12" r="12" fill="#212431"/>
</mask>
<g mask="url(#mask0)">
<circle id="Ellipse_2" cx="12" cy="12" r="12" fill="#3F445A"/>
</g>
</g>
<g id="bower_2">
<path id="outline" d="M22.471 9.76868C21.2928 8.64433 15.4007 7.94242 13.5416 7.73812C13.6316 7.52692 13.7083 7.30848 13.7716 7.08355C14.025 6.97333 14.2986 6.87077 14.5815 6.78514C14.6159 6.88612 14.7783 7.27302 14.8708 7.45665C18.6091 7.55906 18.8011 4.69774 18.9531 3.91386C19.1018 3.14738 19.0942 2.4068 20.3765 1.0529C18.4662 0.500029 15.7189 1.9098 14.7986 4.00802C14.4528 3.87935 14.1063 3.78433 13.7635 3.72554C13.5179 2.74151 12.2388 0 8.88211 0C4.63221 0 0 3.48185 0 9.37606C0 14.3306 3.40614 18.6727 5.33039 18.6727C6.17083 18.6727 6.89381 18.0477 7.06353 17.4874C7.20582 17.8716 7.64239 19.0658 7.78579 19.3698C7.99772 19.8194 8.97784 20.2084 9.40675 19.7419C9.95822 20.0461 10.9702 20.2294 11.5217 19.418C12.5838 19.6411 13.5228 19.0121 13.5433 18.2616C14.0645 18.2339 14.3202 17.5072 14.2064 16.9284C14.1225 16.5023 13.2263 14.9733 12.8767 14.4455C13.5687 15.0045 15.3216 15.1628 15.5345 14.4459C16.6502 15.3156 18.3889 14.8591 18.5268 14.1518C19.8825 14.5016 21.4374 13.7333 21.1821 12.8028C23.3601 12.6533 23.0813 10.352 22.4702 9.76887L22.471 9.76868Z" fill="#212431"/>
<g id="leaf">
<path id="Shape" fill-rule="evenodd" clip-rule="evenodd" d="M18.2096 2.30284C17.4651 2.92721 16.8757 3.93641 16.4066 4.86067C16.7215 5.08048 17.3398 5.59886 17.6091 5.86746C18.0478 5.33865 18.1937 4.59066 18.3404 3.83834C18.5084 2.97704 18.6775 2.11007 19.2884 1.55983C17.5796 1.6521 16.0291 2.83341 15.3618 4.24791C15.6114 4.36797 15.859 4.50525 16.1028 4.65915C16.5811 3.61124 17.3902 2.63081 18.2096 2.30284ZM15.7055 5.93299C15.6805 6.05753 15.6672 6.33037 15.6667 6.36573C15.6978 6.31272 15.771 6.16006 15.824 6.04956C15.8401 6.016 15.8543 5.98633 15.8649 5.96452C16.2732 6.04199 16.8102 6.17149 17.1249 6.31718C16.7553 6.5549 16.1273 6.81347 15.2578 6.83157C15.1316 6.55992 15.0038 6.10863 15.0193 5.84337C15.232 5.8384 15.6399 5.91764 15.7055 5.93299Z" fill="#7ACCEE"/>
</g>
<g id="Group_2">
<path id="wingtip" fill-rule="evenodd" clip-rule="evenodd" d="M15.2647 10.1286C15.2646 10.1286 15.2645 10.1286 15.2644 10.1286L15.2644 10.1286C15.2645 10.1286 15.2646 10.1286 15.2647 10.1286ZM15.2647 10.1286C16.9195 10.2548 19.6558 10.4998 21.3499 10.7352C21.2429 10.1877 20.9505 10.0313 20.0308 9.78595C19.0417 9.89071 16.5326 10.1355 15.2647 10.1286ZM12.4365 13.6801C12.4363 13.6794 12.4361 13.6788 12.4361 13.6782L12.4361 13.6782C13.1528 14.4541 14.9656 14.3733 14.9472 13.671C16.3937 14.4027 17.6664 13.7707 17.3517 13.0687C18.7811 13.5412 19.8073 12.6833 19.2787 11.9683C20.2569 12.1947 20.9058 11.8689 21.1908 11.4075C20.7618 11.2985 19.3955 11.0263 17.9697 10.7532C18.1838 11.0925 17.2293 11.8712 16.393 11.4842C16.7837 12.3589 15.0652 13.0867 14.2304 12.4629C14.3198 13.1678 12.6142 13.5736 12.0699 12.7869C12.2097 13.1608 12.3267 13.4468 12.437 13.6823C12.4369 13.6817 12.4367 13.6809 12.4365 13.6801Z" fill="#2ECC71"/>
<path id="body" d="M14.2305 12.463C15.0654 13.0868 16.7838 12.3591 16.3932 11.4844C17.2294 11.8714 18.184 11.0927 17.9699 10.7534C16.2843 10.4306 14.5154 10.1067 14.1142 10.0501C14.3576 10.0629 14.761 10.0903 15.2645 10.1288C16.5324 10.1357 19.0418 9.89089 20.0309 9.78612C18.4293 9.38284 15.1595 8.7943 12.9015 8.64932C12.7968 8.80121 12.6045 9.0588 12.2694 9.33251C11.2814 11.4085 9.49132 12.7885 7.51065 12.7885C6.93346 12.7885 6.28764 12.6918 5.5638 12.462C5.11239 12.9422 3.18778 13.3062 1.62614 12.545C2.86484 15.4254 5.73749 17.3482 8.91749 17.3482C11.5955 17.3482 12.783 14.6325 12.5231 13.9139C12.46 13.7394 12.2102 13.1609 12.0704 12.787C12.6146 13.5737 14.3203 13.1679 14.2309 12.463L14.2305 12.463Z" fill="#F4BF75"/>
<path id="beak" d="M12.6077 6.99698C12.8441 6.86924 13.6612 6.37736 14.4398 6.19252C14.4276 6.10689 14.4183 6.02052 14.4125 5.93366C13.9017 6.05515 12.9386 6.46509 12.3867 5.90016C13.5511 6.24909 14.1324 5.58925 14.9883 5.58925C15.4982 5.58925 16.2259 5.73071 16.7995 5.95436C16.3381 5.53111 14.8252 4.25371 12.952 4.24931C12.5338 4.75284 12.0818 5.84356 12.6076 6.99695L12.6077 6.99698Z" fill="#CFD2D3"/>
<path id="head" d="M5.5638 12.4615C6.28763 12.6913 6.93346 12.788 7.51065 12.788C9.49126 12.788 11.2813 11.408 12.2694 9.33204C11.5386 9.93781 10.2687 10.4561 8.28531 10.4561C10.052 10.0583 11.5728 9.18402 12.3464 7.90609C11.8026 7.04651 11.2127 5.14485 12.7064 3.64153C12.4766 2.90847 11.3583 0.973236 8.88252 0.973236C4.56184 0.973236 0.98114 4.56371 0.98114 9.37533C0.98114 10.5144 1.21269 11.5827 1.62626 12.5442C3.18784 13.3055 5.11244 12.9415 5.56386 12.4613L5.5638 12.4615Z" fill="#D14748"/>
<path id="eye_rim" d="M6.85973 5.13501C6.85973 6.22954 7.75318 7.11688 8.85531 7.11688C9.95744 7.11688 10.851 6.22949 10.851 5.13501C10.851 4.04049 9.95744 3.15315 8.85531 3.15315C7.75318 3.15315 6.85973 4.04049 6.85973 5.13501Z" fill="#F4BF75"/>
<path id="eye" d="M7.66071 5.13501C7.66071 5.79029 8.19573 6.32152 8.85546 6.32152C9.51539 6.32152 10.0503 5.79024 10.0503 5.13501C10.0503 4.47969 9.51539 3.94846 8.85546 3.94846C8.19568 3.94846 7.66071 4.47974 7.66071 5.13501Z" fill="#343944"/>
<path id="pupil_highlight" d="M8.85531 5.03867C9.23984 5.03867 9.55155 4.8462 9.55155 4.60878C9.55155 4.37136 9.23984 4.17889 8.85531 4.17889C8.47079 4.17889 8.15907 4.37136 8.15907 4.60878C8.15907 4.8462 8.47079 5.03867 8.85531 5.03867Z" fill="white"/>
</g>
</g>
</g>
</svg>
