<svg width="16" height="16" viewBox="0 0 16 16" fill="none" xmlns="http://www.w3.org/2000/svg">
<g id="browserlist">
<g id="68747470733a2f2f62726f77736572736c6973742e6769746875622e696f2f62726f77736572736c6973742f6c6f676f2e737667">
<path id="Oval" fill-rule="evenodd" clip-rule="evenodd" d="M8 13.9155C11.267 13.9155 13.9155 11.267 13.9155 7.99997C13.9155 4.73293 11.267 2.08447 8 2.08447C4.73296 2.08447 2.0845 4.73293 2.0845 7.99997C2.0845 11.267 4.73296 13.9155 8 13.9155Z" fill="#E0AF00"/>
<path id="Combined Shape" fill-rule="evenodd" clip-rule="evenodd" d="M7.77472 3.96264C7.65448 3.67627 7.57079 3.35187 7.52183 2.953C7.03814 3.29559 6.64409 3.79347 6.35442 4.36252C6.13763 4.13732 5.94174 3.86307 5.75167 3.50562C5.42355 3.99778 5.2342 4.60233 5.16733 5.23598C4.8904 5.10403 4.61476 4.92052 4.31575 4.66064C4.18588 5.23731 4.22562 5.8691 4.38999 6.48422C4.0778 6.46204 3.74831 6.38929 3.36734 6.25064C3.45284 6.83618 3.71683 7.41239 4.09139 7.92818C3.79736 8.01538 3.46981 8.0634 3.07387 8.07033L3.07382 8.07024V8.07033L3.07387 8.07033C3.36439 8.58784 3.81914 9.03224 4.35569 9.37999C4.10836 9.57317 3.81415 9.74014 3.43704 9.89249H3.43713C3.89185 10.2699 4.47262 10.5213 5.09513 10.6542C4.93505 10.9153 4.72396 11.1698 4.43473 11.4396L4.43466 11.4395V11.4396L4.43473 11.4396C4.99359 11.6286 5.62472 11.6554 6.25245 11.5569C6.19732 11.8626 6.09083 12.1802 5.91464 12.5414H5.91473C6.50585 12.5176 7.10634 12.3154 7.65835 11.997C7.71736 12.3036 7.73221 12.6401 7.69698 13.043C8.88866 12.5296 9.81487 11.1988 10.1408 9.8819C10.2289 9.64398 10.2756 9.29984 10.2756 8.82591C10.2756 8.69891 10.2731 8.57574 10.2687 8.45616C11.2323 8.29257 11.933 7.96087 12.336 7.72456C12.4832 7.63822 12.6325 7.51145 12.6811 7.40733C12.7565 7.31884 12.8019 7.20413 12.8019 7.07879C12.8019 6.79876 12.5749 6.57175 12.2949 6.57175C12.0569 6.57175 11.8572 6.73577 11.8026 6.95695C11.0191 6.54892 10.1217 5.72186 10.3409 4.52718C10.5039 4.3011 10.7325 4.07406 11.0471 3.83551L11.0472 3.83552V3.83543L11.0471 3.83551C10.4584 3.76645 9.83239 3.8728 9.23634 4.10189C9.22709 3.79237 9.26527 3.46048 9.36216 3.0719C8.79087 3.21762 8.24732 3.53856 7.77472 3.96264ZM10.261 8.28606C10.3694 8.26726 10.4765 8.24592 10.5823 8.22212C11.2364 8.07508 11.7944 7.84615 12.2505 7.57877C12.2955 7.55237 12.339 7.52263 12.378 7.4923C12.4125 7.43956 12.4111 7.4011 12.3848 7.36947C11.9066 7.24706 11.3041 6.91899 10.8714 6.49632C10.3984 6.03425 10.1339 5.48696 10.1377 4.87901C9.89704 5.42486 9.97221 5.99655 10.0832 6.73905C10.1809 6.72616 10.2572 6.64717 10.266 6.54829C10.2751 6.44641 10.2099 6.35264 10.1112 6.32566C10.2577 6.29423 10.4074 6.36299 10.4791 6.4946C10.5507 6.6262 10.5271 6.78924 10.4212 6.89519C10.3409 6.97546 10.2278 7.00844 10.1205 6.98856C10.177 7.37076 10.2347 7.79761 10.261 8.28606Z" fill="#212431"/>
<path id="Path" fill-rule="evenodd" clip-rule="evenodd" d="M10.267 8.2099C10.2613 8.17289 10.2512 8.06058 10.2444 7.96035C10.2334 7.79607 10.1717 7.26275 10.1422 7.07666L10.1305 7.00348L10.2253 6.99275C10.4804 6.96402 10.6137 6.6603 10.4625 6.45241C10.4128 6.38404 10.2639 6.309 10.178 6.309H10.11L10.1823 6.37728C10.2358 6.42773 10.2546 6.4623 10.2546 6.50996C10.2546 6.59624 10.2084 6.68083 10.1455 6.70948C10.097 6.73162 10.0935 6.72917 10.0827 6.6679C9.99707 6.18114 9.9696 5.60497 10.0186 5.32635C10.0363 5.22604 10.0686 5.09379 10.0904 5.03252L10.1302 4.92114L10.1319 5.01224C10.1329 5.06244 10.1507 5.18548 10.1715 5.28579C10.3096 5.95128 10.7621 6.53345 11.4906 6.98295C11.6841 7.10227 12.025 7.26461 12.2169 7.32883C12.2987 7.35613 12.3743 7.38714 12.3846 7.39754C12.4195 7.43235 12.3796 7.48213 12.2526 7.56233C11.8646 7.8074 11.2406 8.05382 10.6599 8.1914C10.2467 8.28925 10.2789 8.28773 10.267 8.2099V8.2099Z" fill="white"/>
</g>
</g>
</svg>
