<svg width="16" height="16" viewBox="0 0 16 16" fill="none" xmlns="http://www.w3.org/2000/svg">
<g id="coffee">
<g id="Group 3">
<g id="Vector">
<path d="M8.33729 6.05077C4.4262 6.06677 0.558369 4.95626 3.38377 3.88077C2.20644 4.85513 5.25941 5.50641 8.31919 5.52286C11.3721 5.53928 14.4315 4.92303 13.518 3.98302C15.8582 5.01306 12.0522 6.03558 8.33729 6.05077Z" fill="#E19235"/>
<path d="M2.96002 7.54321C2.75154 6.95281 2.59191 6.33518 2.49759 5.69857C3.58331 7.29005 13.1694 7.33265 14.2451 5.69857C14.0293 6.93695 13.643 8.0958 13.0863 9.10695C12.6659 9.74318 12.2456 10.2999 11.8252 10.902C11.6548 11.2542 11.5241 11.6064 11.456 11.9586C10.5897 13.2925 6.31527 13.4819 5.30383 11.9586C5.2243 11.6064 5.09933 11.2542 4.91754 10.902C4.20344 9.97415 3.47335 8.89988 3.13467 8.00199C2.68444 8.43553 2.58651 8.96549 2.66801 9.55004C2.74079 10.072 3.02021 10.5044 3.44058 10.8111C3.82686 11.1179 4.21314 11.2656 4.66759 11.2656C4.45173 11.3338 4.21314 11.4474 3.99728 11.4815C3.44058 11.5837 2.95204 11.4815 2.49759 11.1293C2.06587 10.7771 1.79319 10.3226 1.75911 9.76591C1.72503 9.20921 1.89545 8.64114 2.28173 8.15261C2.48716 7.89279 2.71261 7.69247 2.96002 7.54321Z" fill="#E19235"/>
</g>
<path id="Vector_2" d="M5.84917 3.21536C6.71198 3.14211 6.87334 3.49934 6.57629 3.62436C5.19755 3.16797 4.85672 4.19995 6.16728 4.09018C7.36022 3.98793 7.34886 3.18128 9.09849 3.02222C10.4618 2.89724 11.223 3.31761 11.3253 3.82887C11.4048 4.22651 11.0736 4.59318 10.0869 4.69233C8.79731 4.82191 8.12608 4.0945 9.12121 3.94248C9.16666 4.13562 9.40524 4.34013 9.97331 4.28332C10.3823 4.24924 10.7232 4.10154 10.6777 3.87431C10.6323 3.63573 10.2005 3.49939 9.51886 3.5562C8.13278 3.68117 7.79194 4.44238 6.61037 4.54463C5.07447 4.72304 4.23658 3.38099 5.84917 3.21536Z" fill="#E0AF00"/>
</g>
</g>
</svg>
