<svg width="16" height="16" viewBox="0 0 16 16" fill="none" xmlns="http://www.w3.org/2000/svg">
<g id="coldfusion">
<path id="Shape" d="M8 2C11.3137 2 14 4.68629 14 8C14 11.3137 11.3137 14 8 14C4.68629 14 2 11.3137 2 8C2 4.68629 4.68629 2 8 2Z" fill="#2B2256" stroke="#C1C9E7"/>
<path id="Cf" d="M7.104 9.76099C8.01221 9.76099 8.66162 9.20923 8.70312 8.37183H7.84131C7.78516 8.78442 7.49951 9.04321 7.10645 9.04321C6.61328 9.04321 6.30566 8.62573 6.30566 7.93481C6.30566 7.25122 6.61572 6.83374 7.104 6.83374C7.49707 6.83374 7.79248 7.10718 7.83643 7.52222H8.69824C8.67139 6.6897 7.99512 6.11597 7.104 6.11597C6.0542 6.11597 5.39258 6.78735 5.39258 7.93726C5.39258 9.0896 6.04932 9.76099 7.104 9.76099ZM9.28174 9.69995H10.1484V7.67847H10.6416V7.06079H10.124V6.94604C10.124 6.79224 10.2241 6.69946 10.4609 6.69946C10.5293 6.69946 10.6025 6.70679 10.6514 6.71411V6.177C10.5562 6.15747 10.3853 6.14038 10.2314 6.14038C9.53564 6.14038 9.28174 6.38208 9.28174 6.90698V7.06079H8.92773V7.67847H9.28174V9.69995Z" fill="white"/>
</g>
</svg>
