<svg width="16" height="16" viewBox="0 0 16 16" fill="none" xmlns="http://www.w3.org/2000/svg">
<path fill-rule="evenodd" clip-rule="evenodd" d="M8 2C11.3115 2 14 4.68853 14 8C14 11.3115 11.3115 14 8 14C4.68853 14 2 11.3115 2 8C2 4.68853 4.68853 2 8 2ZM6.84833 10.7196C7.1912 10.6277 7.54407 10.8315 7.63593 11.1743C7.7278 11.5171 7.52407 11.8701 7.1812 11.9619C6.8384 12.0538 6.48547 11.8501 6.3936 11.5072C6.30173 11.1644 6.50547 10.8115 6.84833 10.7196ZM10.3103 3.96973C10.4335 4.00273 10.5067 4.12953 10.4737 4.25267C10.4407 4.3758 10.3139 4.44893 10.1908 4.41593L9.9756 4.35833C9.93647 4.67473 9.73073 6.4144 9.81633 7.40293C8.9032 8.1916 7.325 10.5638 7.325 10.5638L8.15433 7.46873C8.31627 7.4584 8.49413 7.35547 8.5384 7.19013C8.59393 6.98287 8.47073 6.76947 8.26347 6.71393C8.0562 6.6584 7.8428 6.7816 7.78727 6.98887C7.743 7.1542 7.84553 7.33227 7.9806 7.42213L7.15127 10.5173C7.15127 10.5173 6.93167 7.799 6.57413 6.53413C7.1552 5.78133 7.83853 4.11787 7.9594 3.81807L7.74333 3.7602C7.6202 3.7272 7.54707 3.6004 7.58007 3.47727C7.61307 3.35413 7.7398 3.281 7.86293 3.314L10.3103 3.96973V3.96973Z" fill="#99A7C2"/>
</svg>
