<svg width="16" height="16" viewBox="0 0 16 16" xmlns="http://www.w3.org/2000/svg"><path d="M4.648 1.781c0 .58.254 1.095.646 1.418-1.661.28-3.53 1.666-3.964 2.872C.733 5.715 0 6.095 0 6.72c-.015.593.813 1.122 1.473.537.161.226.395.419.678.575-.007.26-.01 1.01.088 1.15.128.182 1.521.168 1.58.002.031-.092.051-.489.063-.704.452.02.915-.023 1.35-.14a1.752 1.752 0 00-.087.87c-1.458 1.07-2.27 3.352-.796 5.337-.916.356-1.805.867-1.771 1.498 1.314-.03 6.079 0 6.079 0 .291 0 .568-.042.828-.12C21.412 14.026 9.368 3.874 16 .783c-7.7 1.524 2.88 12.135-5.073 13.697 1.98-1.9 1.301-7.707-1.948-10.317.84-.161 1.479-.968 1.479-1.938C10.483.808 8.915-.492 7.534.704 6.65-.586 4.705-.031 4.648 1.78z" fill="#00b6c2" fill-rule="nonzero"/></svg>
