<svg width="16" height="16" viewBox="0 0 16 16" fill="none" xmlns="http://www.w3.org/2000/svg">
<path d="M5.90491 4.11313C5.90491 4.47563 6.06366 4.7975 6.30866 4.99938C5.27054 5.17438 4.10241 6.04063 3.83116 6.79438C3.45804 6.57188 2.99991 6.80938 2.99991 7.2C2.99054 7.57063 3.50804 7.90125 3.92054 7.53563C4.02116 7.67688 4.16741 7.7975 4.34429 7.895C4.33991 8.0575 4.33804 8.52625 4.39929 8.61375C4.47929 8.7275 5.34991 8.71875 5.38679 8.615C5.40616 8.5575 5.41866 8.30938 5.42616 8.175C5.70866 8.1875 5.99804 8.16063 6.26991 8.0875C6.20612 8.26125 6.18742 8.44832 6.21554 8.63125C5.30429 9.3 4.79679 10.7263 5.71804 11.9669C5.14554 12.1894 4.58991 12.5088 4.61116 12.9031C5.43241 12.8844 8.41054 12.9031 8.41054 12.9031C8.59241 12.9031 8.76554 12.8769 8.92804 12.8281C16.3824 11.7663 8.85491 5.42125 12.9999 3.48938C8.18741 4.44188 14.7999 11.0738 9.82929 12.05C11.0668 10.8625 10.6424 7.23313 8.61179 5.60188C9.13679 5.50125 9.53616 4.99688 9.53616 4.39063C9.55179 3.505 8.57179 2.6925 7.70866 3.44C7.15616 2.63375 5.94054 2.98063 5.90491 4.1125V4.11313Z" fill="#69A7D3"/>
</svg>
