<svg width="16" height="16" viewBox="0 0 16 16" fill="none" xmlns="http://www.w3.org/2000/svg">
<g id="favicon">
<g id="shape-star">
<path id="Shape" d="M13.572 6.27056L10.0315 5.75606L8.45 2.55006C8.35645 2.39122 8.18585 2.2937 8.0015 2.2937C7.81715 2.2937 7.64655 2.39122 7.553 2.55006L5.9685 5.75606L2.428 6.27056C2.23965 6.29775 2.08307 6.4295 2.02407 6.61042C1.96507 6.79134 2.01389 6.99007 2.15 7.12306L4.7125 9.62006L4.108 13.1466C4.07586 13.3341 4.15299 13.5237 4.30696 13.6355C4.46094 13.7474 4.66505 13.7621 4.8335 13.6736L8 12.0091L11.1665 13.6736C11.3349 13.7621 11.5391 13.7474 11.693 13.6355C11.847 13.5237 11.9241 13.3341 11.892 13.1466L11.2875 9.62006L13.85 7.12306C13.9861 6.99021 14.035 6.79166 13.9762 6.6108C13.9175 6.42993 13.7612 6.29806 13.573 6.27056H13.572Z" fill="#E0AF00"/>
</g>
</g>
</svg>
