<svg width="16" height="16" viewBox="0 0 16 16" fill="none" xmlns="http://www.w3.org/2000/svg">
<path fill-rule="evenodd" clip-rule="evenodd" d="M14 7H9C7.89543 7 7 7.89543 7 9V13.8H3.2C2.88174 13.8 2.57652 13.6736 2.35147 13.4485C2.12643 13.2235 2 12.9183 2 12.6V4.2C2 3.88174 2.12643 3.57652 2.35147 3.35147C2.57652 3.12643 2.88174 3 3.2 3H6.2L7.4 4.8H12.8C13.1183 4.8 13.4235 4.92643 13.6485 5.15147C13.8736 5.37652 14 5.68174 14 6V7Z" fill="#798BAF"/>
<rect opacity="0.1" x="8" y="8" width="7" height="7" rx="1" fill="#252D3A"/>
<path fill-rule="evenodd" clip-rule="evenodd" d="M11.5 8.875C11.4548 8.875 11.41 8.88628 11.3696 8.90938L9.19988 10.1432C9.11875 10.1894 9.06944 10.2786 9.06944 10.3711V12.8473C9.06944 12.9399 9.11881 13.0246 9.19988 13.0709L11.3696 14.309C11.4507 14.3553 11.5493 14.3553 11.6304 14.309L13.8001 13.0709C13.8811 13.0246 13.9306 12.9399 13.9306 12.8473V10.3711C13.9306 10.2784 13.8812 10.1894 13.8001 10.1432L11.6304 8.90938C11.59 8.88628 11.5452 8.875 11.5 8.875" fill="#A9EFA3"/>
<mask id="mask0" mask-type="alpha" maskUnits="userSpaceOnUse" x="9" y="8" width="5" height="7">
<path fill-rule="evenodd" clip-rule="evenodd" d="M11.5 8.875C11.4548 8.875 11.41 8.88628 11.3696 8.90938L9.19988 10.1432C9.11875 10.1894 9.06944 10.2786 9.06944 10.3711V12.8473C9.06944 12.9399 9.11881 13.0246 9.19988 13.0709L11.3696 14.309C11.4507 14.3553 11.5493 14.3553 11.6304 14.309L13.8001 13.0709C13.8811 13.0246 13.9306 12.9399 13.9306 12.8473V10.3711C13.9306 10.2784 13.8812 10.1894 13.8001 10.1432L11.6304 8.90938C11.59 8.88628 11.5452 8.875 11.5 8.875" fill="white"/>
</mask>
<g mask="url(#mask0)">
<path fill-rule="evenodd" clip-rule="evenodd" d="M11.2776 8.4103L14.1132 13.3218L11.6764 14.7287L8.84074 9.81722L11.2776 8.4103Z" fill="#00CC9B"/>
</g>
</svg>
