<svg width="16" height="16" viewBox="0 0 16 16" fill="none" xmlns="http://www.w3.org/2000/svg">
<path fill-rule="evenodd" clip-rule="evenodd" d="M14.9167 6.66667H9.08332C7.79466 6.66667 6.74999 7.71134 6.74999 9V14.6H2.31666C1.94535 14.6 1.58926 14.4525 1.32671 14.1899C1.06416 13.9274 0.916656 13.5713 0.916656 13.2V3.4C0.916656 3.0287 1.06416 2.6726 1.32671 2.41005C1.58926 2.1475 1.94535 2 2.31666 2H5.81666L7.21666 4.1H13.5167C13.888 4.1 14.2441 4.2475 14.5066 4.51005C14.7692 4.7726 14.9167 5.1287 14.9167 5.5L14.9167 6.66667Z" fill="#798BAF"/>
<path fill-rule="evenodd" clip-rule="evenodd" d="M9 8C8.44772 8 8 8.44772 8 9V14C8 14.5523 8.44772 15 9 15H14C14.5523 15 15 14.5523 15 14V9C15 8.44772 14.5523 8 14 8H9ZM11.7024 11.67L11.958 11.5414L14.0042 10.5148L13.9943 12.8457L11.6925 14.0008L11.7024 11.67ZM13.8555 10.2071L11.5 9L10.5 9.49999L9.10846 10.2071L10.6096 10.9423L11.491 11.3941L12.3715 10.9529L13.8555 10.2071ZM9.87132 11.5439L10.2933 11.7366L10.2957 11.1692L11.2796 11.6723L11.2698 13.9866L8.99438 12.8203L9.00421 10.506L9.87384 10.9506L9.87132 11.5439Z" fill="#E19235"/>
</svg>
