<svg width="16" height="16" viewBox="0 0 16 16" fill="none" xmlns="http://www.w3.org/2000/svg">
<path fill-rule="evenodd" clip-rule="evenodd" d="M14.9167 6.66667H9.08333C7.79466 6.66667 6.75 7.71133 6.75 9V14.6H2.31666C1.94536 14.6 1.58926 14.4525 1.32671 14.1899C1.06416 13.9274 0.916662 13.5713 0.916662 13.2V3.4C0.916662 3.0287 1.06416 2.6726 1.32671 2.41005C1.58926 2.1475 1.94536 2 2.31666 2H5.81666L7.21666 4.1H13.5167C13.888 4.1 14.2441 4.2475 14.5066 4.51005C14.7692 4.7726 14.9167 5.1287 14.9167 5.5L14.9167 6.66667Z" fill="#798BAF"/>
<rect opacity="0.1" x="8" y="8" width="7" height="7" rx="1" fill="#252D3A"/>
<path d="M11.6095 8.875C10.0993 8.875 8.875 10.0799 8.875 11.5662C8.875 12.7553 9.65837 13.764 10.7452 14.1198C10.8819 14.1445 10.9319 14.0613 10.9319 13.9902C10.9319 13.9262 10.9295 13.7139 10.928 13.4894C10.1675 13.652 10.0069 13.172 10.0069 13.172C9.88237 12.8611 9.70322 12.7784 9.70322 12.7784C9.45461 12.6114 9.72199 12.6148 9.72199 12.6148C9.99644 12.6335 10.1412 12.8921 10.1412 12.8921C10.3852 13.3035 10.7815 13.1845 10.937 13.1154C10.9619 12.942 11.0326 12.823 11.1106 12.7561C10.5037 12.6882 9.86506 12.4572 9.86506 11.4259C9.86506 11.1318 9.97182 10.8922 10.1463 10.7036C10.1186 10.6353 10.0242 10.3615 10.1734 9.99117C10.1734 9.99117 10.4027 9.91897 10.9253 10.267C11.1432 10.2071 11.3772 10.1776 11.6095 10.1766C11.8418 10.1776 12.0758 10.2075 12.2942 10.2675C12.8158 9.91897 13.0456 9.99165 13.0456 9.99165C13.195 10.3623 13.1009 10.6357 13.0729 10.7039C13.2481 10.8922 13.3539 11.1321 13.3539 11.4261C13.3539 12.46 12.7144 12.6877 12.1053 12.7544C12.2037 12.8379 12.2907 13.0015 12.2907 13.2524C12.2907 13.6122 12.2871 13.9022 12.2871 13.991C12.2871 14.0627 12.3368 14.1464 12.4753 14.12C13.5611 13.7636 14.3438 12.7551 14.3438 11.5665C14.3438 10.0804 13.1195 8.87524 11.6093 8.87524L11.6095 8.875Z" fill="#798BAF"/>
</svg>
