<svg width="16" height="16" viewBox="0 0 16 16" fill="none" xmlns="http://www.w3.org/2000/svg">
<path fill-rule="evenodd" clip-rule="evenodd" d="M14.9167 6.66667H9.08332C7.79466 6.66667 6.74999 7.71133 6.74999 9V14.6H2.31666C1.94535 14.6 1.58926 14.4525 1.32671 14.1899C1.06416 13.9274 0.916656 13.5713 0.916656 13.2V3.4C0.916656 3.0287 1.06416 2.6726 1.32671 2.41005C1.58926 2.1475 1.94535 2 2.31666 2H5.81666L7.21666 4.1H13.5167C13.888 4.1 14.2441 4.2475 14.5066 4.51005C14.7692 4.7726 14.9167 5.1287 14.9167 5.5L14.9167 6.66667Z" fill="#798BAF"/>
<rect opacity="0.1" x="8" y="8" width="7" height="7" rx="1" fill="#252D3A"/>
<path fill-rule="evenodd" clip-rule="evenodd" d="M14.1245 9.36471L12.8737 8.875L10.6903 10.9516L9.37545 9.97411L8.8755 10.2197L8.875 12.7832L9.37261 13.027L10.6864 12.0503L12.8751 14.125L14.125 13.6372L14.1245 9.36471ZM12.7348 10.5735L11.5 11.4964L12.7353 12.4265L12.7348 10.5735ZM9.49339 12.0404L9.49265 10.9595L10.1103 11.4963L9.49339 12.0404Z" fill="#4C71F6"/>
</svg>
