<svg width="16" height="16" viewBox="0 0 16 16" fill="none" xmlns="http://www.w3.org/2000/svg">
<path opacity="0.8" fill-rule="evenodd" clip-rule="evenodd" d="M14.9167 6.66667H9.08332C7.79466 6.66667 6.74999 7.71134 6.74999 9V14.6H2.31666C1.94535 14.6 1.58926 14.4525 1.32671 14.1899C1.06416 13.9274 0.916656 13.5713 0.916656 13.2V3.4C0.916656 3.0287 1.06416 2.6726 1.32671 2.41005C1.58926 2.1475 1.94535 2 2.31666 2H5.81666L7.21666 4.1H13.5167C13.888 4.1 14.2441 4.2475 14.5066 4.51005C14.7692 4.7726 14.9167 5.1287 14.9167 5.5L14.9167 6.66667Z" fill="#434F65"/>
<rect opacity="0.1" x="8" y="8" width="7" height="7" rx="1" fill="#252D3A"/>
<path fill-rule="evenodd" clip-rule="evenodd" d="M11.5 8.875C11.4548 8.875 11.41 8.88628 11.3696 8.90938L9.19988 10.1432C9.11875 10.1894 9.06944 10.2786 9.06944 10.3711V12.8473C9.06944 12.9399 9.11881 13.0246 9.19988 13.0709L11.3696 14.309C11.4507 14.3553 11.5493 14.3553 11.6304 14.309L13.8001 13.0709C13.8811 13.0246 13.9306 12.9399 13.9306 12.8473V10.3711C13.9306 10.2784 13.8812 10.1894 13.8001 10.1432L11.6304 8.90938C11.59 8.88628 11.5452 8.875 11.5 8.875" fill="#A9EFA3"/>
<mask id="mask0" mask-type="alpha" maskUnits="userSpaceOnUse" x="9" y="8" width="5" height="7">
<path fill-rule="evenodd" clip-rule="evenodd" d="M11.5 8.875C11.4548 8.875 11.41 8.88628 11.3696 8.90938L9.19988 10.1432C9.11875 10.1894 9.06944 10.2786 9.06944 10.3711V12.8473C9.06944 12.9399 9.11881 13.0246 9.19988 13.0709L11.3696 14.309C11.4507 14.3553 11.5493 14.3553 11.6304 14.309L13.8001 13.0709C13.8811 13.0246 13.9306 12.9399 13.9306 12.8473V10.3711C13.9306 10.2784 13.8812 10.1894 13.8001 10.1432L11.6304 8.90938C11.59 8.88628 11.5452 8.875 11.5 8.875" fill="white"/>
</mask>
<g mask="url(#mask0)">
<path fill-rule="evenodd" clip-rule="evenodd" d="M11.2776 8.4103L14.1132 13.3218L11.6764 14.7287L8.84074 9.81722L11.2776 8.4103Z" fill="#00CC9B"/>
</g>
</svg>
