<svg width="16" height="16" viewBox="0 0 16 16" fill="none" xmlns="http://www.w3.org/2000/svg">
<path opacity="0.8" fill-rule="evenodd" clip-rule="evenodd" d="M14.9167 6.66667H9.08332C7.79466 6.66667 6.74999 7.71134 6.74999 9V14.6H2.31666C1.94535 14.6 1.58926 14.4525 1.32671 14.1899C1.06416 13.9274 0.916656 13.5713 0.916656 13.2V3.4C0.916656 3.0287 1.06416 2.6726 1.32671 2.41005C1.58926 2.1475 1.94535 2 2.31666 2H5.81666L7.21666 4.1H13.5167C13.888 4.1 14.2441 4.2475 14.5066 4.51005C14.7692 4.7726 14.9167 5.1287 14.9167 5.5L14.9167 6.66667Z" fill="#434F65"/>
<path fill-rule="evenodd" clip-rule="evenodd" d="M9 8C8.44772 8 8 8.44772 8 9V14C8 14.5523 8.44772 15 9 15H14C14.5523 15 15 14.5523 15 14V9C15 8.44772 14.5523 8 14 8H9ZM12.8015 9.98596C12.5958 9.80322 12.286 9.80322 12.0803 9.98596C11.8373 10.2019 11.8373 10.5816 12.0803 10.7976L12.8708 11.5L12.0803 12.2024C11.8373 12.4184 11.8373 12.7981 12.0803 13.014C12.286 13.1968 12.5958 13.1968 12.8015 13.014L14.0746 11.8828C14.3085 11.675 14.3085 11.325 14.0746 11.1172L12.8015 9.98596ZM10.9197 9.98596C10.714 9.80322 10.4042 9.80322 10.1985 9.98596L8.92538 11.1172C8.69154 11.325 8.69154 11.675 8.92538 11.8828L10.1985 13.014C10.4042 13.1968 10.714 13.1968 10.9197 13.014C11.1627 12.7981 11.1627 12.4184 10.9197 12.2024L10.1292 11.5L10.9197 10.7976C11.1627 10.5816 11.1627 10.2019 10.9197 9.98596Z" fill="#4C71F6"/>
</svg>
