<svg width="16" height="16" viewBox="0 0 16 16" fill="none" xmlns="http://www.w3.org/2000/svg">
<g id="gatsby">
<g id="gatsby_2">
<path id="Shape" fill-rule="evenodd" clip-rule="evenodd" d="M8 2C4.66083 2 2 4.66083 2 7.9995C2 11.3382 4.66083 14 7.9995 14C11.3382 14 13.9995 11.3392 13.9995 8C13.9995 4.66083 11.3392 2 8 2ZM3.30415 8.052L7.94797 12.6958C5.3912 12.6958 3.30415 10.6088 3.30415 8.052ZM3.4087 6.95648L9.04352 12.5913C11.1306 12.1221 12.6958 10.2436 12.6958 8H9.61731V8.88694H11.6523C11.3912 10.1396 10.4527 11.1826 9.25212 11.6003L4.34767 6.69535C4.87349 5.15791 6.32314 4.12863 7.94797 4.13907C9.22024 4.13243 10.4128 4.75794 11.1306 5.8084L11.8084 5.23512C10.917 4.02364 9.50357 3.30709 7.9995 3.30415C5.75638 3.30415 3.87744 4.86943 3.4087 6.95648Z" fill="#E382BC"/>
</g>
</g>
</svg>
