<svg width="24" height="24" viewBox="0 0 24 24" fill="none" xmlns="http://www.w3.org/2000/svg">
<g id="git">
<mask id="mask0" mask-type="alpha" maskUnits="userSpaceOnUse" x="0" y="0" width="24" height="24">
<circle id="Ellipse" cx="12" cy="12" r="12" fill="#212431"/>
</mask>
<g mask="url(#mask0)">
<circle id="Ellipse_2" cx="12" cy="12" r="12" fill="#D14748"/>
<path id="Shape" fill-rule="evenodd" clip-rule="evenodd" d="M20.6442 11.2008L12.7913 3.34934C12.5754 3.11645 12.3053 3 11.9809 3C11.6564 3 11.3783 3.11645 11.1464 3.34934L9.52544 4.97005L11.5948 7.03899C11.8277 6.95604 12.0729 6.94381 12.3303 7.0023C12.5877 7.06079 12.8163 7.18947 13.0163 7.38834C13.1993 7.57125 13.32 7.79139 13.3785 8.04874C13.437 8.3061 13.4247 8.55973 13.3418 8.80964L15.3361 10.8036C15.569 10.7207 15.8142 10.7042 16.0716 10.7542C16.329 10.8041 16.5577 10.9286 16.7577 11.1274C17.0236 11.3933 17.1565 11.7171 17.1565 12.0989C17.1565 12.4807 17.0236 12.8045 16.7577 13.0704C16.4918 13.3362 16.1679 13.4692 15.786 13.4692C15.4042 13.4692 15.0803 13.3362 14.8144 13.0704C14.6144 12.8704 14.49 12.6338 14.4411 12.3605C14.3921 12.0872 14.4171 11.8256 14.516 11.5757L12.6462 9.70613V14.6161C12.7132 14.6491 12.7754 14.6863 12.8328 14.7278C12.8903 14.7692 12.9525 14.815 13.0195 14.8649C13.2854 15.1308 13.4184 15.4546 13.4184 15.8364C13.4184 16.2182 13.2854 16.542 13.0195 16.8079C12.7536 17.0907 12.4297 17.2322 12.0479 17.2322C11.666 17.2322 11.3421 17.0907 11.0762 16.8079C10.7933 16.542 10.6518 16.2182 10.6518 15.8364C10.6518 15.4546 10.7933 15.1308 11.0762 14.8649C11.1432 14.7979 11.214 14.74 11.2884 14.6911C11.3629 14.6421 11.4416 14.6007 11.5246 14.5666V9.63116C11.4416 9.59819 11.3629 9.55672 11.2884 9.50674C11.214 9.45675 11.1432 9.3988 11.0762 9.33286C10.8603 9.13293 10.7274 8.89206 10.6774 8.61024C10.6274 8.32843 10.6609 8.06257 10.7779 7.81265L8.73409 5.76923L3.34941 11.1785C3.11647 11.3944 3 11.6645 3 11.9888C3 12.3132 3.11647 12.5833 3.34941 12.7992L11.2023 20.6507C11.4182 20.8836 11.6884 21 12.0128 21C12.3372 21 12.6153 20.8836 12.8472 20.6507L20.6506 12.8486C20.8835 12.6157 21 12.3414 21 12.0255C21 11.7097 20.8835 11.4353 20.6506 11.2024V11.2024L20.6442 11.2008Z" fill="white"/>
</g>
</g>
</svg>
