<svg width="16" height="16" viewBox="0 0 16 16" fill="none" xmlns="http://www.w3.org/2000/svg">
<g id="gitlab">
<g id="Group">
<path id="Shape" d="M8.00353 13.457V13.457L10.2115 6.72845H5.79553L8.00353 13.457V13.457Z" fill="#E75A5A"/>
<path id="Shape_2" d="M8.00351 13.457L5.79551 6.72845H2.70105L8.00351 13.457V13.457Z" fill="#E0AF00"/>
<path id="Shape_3" d="M2.70107 6.72852V6.72852L2.0301 8.77327C1.9689 8.95976 2.03593 9.16407 2.19616 9.27932L8.00353 13.4571L2.70107 6.72852V6.72852Z" fill="#E2AC1D"/>
<path id="Shape_4" d="M2.70108 6.72849H5.79554L4.46565 2.67593C4.39725 2.46737 4.09931 2.46743 4.03091 2.67593L2.70108 6.72849V6.72849Z" fill="#E75A5A"/>
<path id="Shape_5" d="M8.00351 13.457L10.2115 6.72845H13.306L8.00351 13.457V13.457Z" fill="#E0AF00"/>
<path id="Shape_6" d="M13.306 6.72852V6.72852L13.9769 8.77327C14.0381 8.95976 13.9711 9.16407 13.8109 9.27932L8.00351 13.4571L13.306 6.72852V6.72852Z" fill="#E2AC1D"/>
<path id="Shape_7" d="M13.306 6.72849H10.2115L11.5414 2.67593C11.6098 2.46737 11.9077 2.46743 11.9761 2.67593L13.306 6.72849V6.72849Z" fill="#E75A5A"/>
</g>
</g>
</svg>
