<svg width="16" height="16" viewBox="0 0 16 16" fill="none" xmlns="http://www.w3.org/2000/svg">
<g id="gradle">
<g id="gradle_2">
<path id="Shape" fill-rule="evenodd" clip-rule="evenodd" d="M11.6802 3.46212C12.184 3.47257 12.8974 3.6909 13.2964 4.4219L13.2963 4.42189C14.0627 5.75222 13.3858 7.27117 12.6714 8.513C12.4953 8.81906 12.2937 9.09013 12.0956 9.35658C11.4899 10.171 10.9163 10.9424 11.2003 12.5383H9.85493C9.85493 12.5383 7.54177 9.43311 6.62895 12.5383H5.59689C5.38558 11.0069 4.15274 10.9481 3.80786 12.5383H2.45529C2.45529 12.5383 1.71838 8.2195 4.442 7.24117C4.442 7.24117 4.68946 7.82773 5.00818 8.33622C5.3618 8.90061 6.28362 9.29078 7.35877 7.67628C7.35877 7.67628 5.91544 9.2746 5.25593 8.18032C5.06008 7.85503 4.98825 7.74006 4.92204 7.62194C4.84791 7.48968 4.78083 7.35346 4.55464 6.91366C4.23926 6.30099 4.60591 6.03591 5.40337 5.77266C6.20082 5.50916 7.96188 5.07588 9.77268 6.38327C11.5837 7.69066 13.0307 5.80266 12.562 4.88521C12.363 4.49555 12.0658 4.35531 11.8425 4.32893C11.6086 4.30099 11.4027 4.33494 11.2099 4.4394C11.2055 4.44175 11.2007 4.44447 11.1953 4.44746C11.1207 4.48895 10.954 4.58166 10.8578 4.43888C10.7866 4.33285 10.6707 4.07639 10.6501 4.02729C10.554 3.79824 11.062 3.44958 11.6802 3.46212ZM9.3696 7.55429C9.3696 7.55429 9.11501 8.27512 9.82628 8.51173L9.82631 8.51146C10.3645 8.69036 10.7825 8.26152 10.8309 8.03797C9.99066 7.75878 9.3696 7.55429 9.3696 7.55429Z" fill="#3965BD"/>
</g>
</g>
</svg>
