<svg width="16" height="16" viewBox="0 0 16 16" fill="none" xmlns="http://www.w3.org/2000/svg">
<g id="gulp">
<g id="gulp_2">
<path id="Shape" d="M5.77153 10.6947C5.59834 8.89554 5.45762 7.40061 5.45884 7.37261C5.46007 7.34464 5.31231 7.32176 5.13053 7.32176H4.80002V6.03363H7.37798V3.5331L8.59439 2.78336C9.3352 2.32675 9.87996 2.03363 9.9876 2.03363C10.2476 2.03363 10.5508 2.3706 10.5508 2.65952C10.5508 2.78578 10.5137 2.94094 10.4682 3.00435C10.4228 3.06776 9.99889 3.3574 9.52623 3.64801L8.66693 4.17639L8.64855 5.10499L8.63016 6.03359H11.2118V7.32172H10.575L10.2534 10.6438L10.0192 13.0622C9.96952 13.5748 9.53876 13.9659 9.02381 13.9659H6.99475C6.47958 13.9659 6.04871 13.5745 5.99935 13.0617L5.77153 10.6947Z" fill="#E75A5A"/>
</g>
</g>
</svg>
