<svg width="16" height="16" viewBox="0 0 16 16" fill="none" xmlns="http://www.w3.org/2000/svg">
<g id="jest">
<g id="jest_2">
<path id="Shape" d="M10.1201 5.47382L9.44463 6.84162C9.66651 7.04777 9.82314 7.31937 9.88514 7.62696H10.3942C10.4529 7.33573 10.5965 7.07395 10.8021 6.87107L10.1201 5.47382Z" fill="#E75A5A"/>
<path id="Shape_2" d="M8.87686 6.51113L10.1201 3.99149L11.36 6.52749C11.409 6.51113 11.4579 6.49804 11.5069 6.48495L12.6848 3H7.55206L8.72676 6.47513C8.7757 6.48495 8.82791 6.49804 8.87686 6.51113Z" fill="#E75A5A"/>
<path id="Shape_3" d="M8.4494 8.73953C8.90296 8.73953 9.27169 8.36977 9.27169 7.91493C9.27169 7.74804 9.22274 7.59425 9.1379 7.46335C9.1118 7.42082 9.07917 7.38155 9.04654 7.34555L9.04327 7.34228C9.01064 7.30629 8.97149 7.27356 8.93233 7.24739L8.92907 7.24411C8.91928 7.23757 8.90623 7.22775 8.89317 7.22121C8.88991 7.22121 8.88991 7.21794 8.88665 7.21794C8.8736 7.21139 8.86054 7.20157 8.84749 7.19503H8.84423C8.83118 7.18849 8.81486 7.17867 8.80181 7.17212H8.79855C8.78549 7.16558 8.77244 7.15904 8.75939 7.15576C8.75613 7.15576 8.75286 7.15249 8.7496 7.15249C8.73981 7.14922 8.72676 7.14267 8.71697 7.1394C8.71371 7.1394 8.71044 7.13613 8.70392 7.13613C8.69087 7.13286 8.67781 7.12631 8.66476 7.12304H8.6615C8.64518 7.11977 8.63213 7.1165 8.61582 7.11322C8.61255 7.11322 8.60929 7.11322 8.60276 7.10995C8.58971 7.10668 8.57992 7.10668 8.56687 7.10341C8.56034 7.10341 8.55708 7.10341 8.55056 7.10014C8.54077 7.10014 8.52771 7.09686 8.51793 7.09686H8.50161H8.45266H8.40372H8.39067C8.37761 7.09686 8.36783 7.10014 8.35477 7.10014H8.34172C8.32867 7.10341 8.31562 7.10341 8.30256 7.10668H8.29278C8.27646 7.10995 8.26341 7.11322 8.24709 7.1165C7.88816 7.20485 7.62059 7.53207 7.62059 7.9182C7.62712 8.3665 7.99584 8.73953 8.4494 8.73953V8.73953Z" fill="#E75A5A"/>
<path id="Shape_4" d="M11.9082 7.09031H11.9017C11.8886 7.09031 11.8789 7.08704 11.8658 7.08704H11.8234C11.8071 7.08704 11.7908 7.08704 11.7712 7.09031H11.7549C11.7418 7.09031 11.7288 7.09358 11.7157 7.09358C11.7124 7.09358 11.7059 7.09358 11.7026 7.09685L11.6537 7.10667H11.6504C11.6341 7.10994 11.6211 7.11321 11.6048 7.11649C11.6015 7.11649 11.595 7.11976 11.5917 7.11976C11.5787 7.12303 11.5656 7.1263 11.5525 7.13285C11.5493 7.13285 11.546 7.13612 11.5428 7.13612C11.5264 7.14266 11.5101 7.14921 11.4971 7.15575C11.4808 7.1623 11.4677 7.16884 11.4514 7.17539C11.4481 7.17539 11.4449 7.17866 11.4416 7.17866C11.4286 7.1852 11.4155 7.19175 11.4024 7.20156C11.4024 7.20156 11.3992 7.20156 11.3992 7.20484C11.3698 7.2212 11.3405 7.24083 11.3143 7.26374L11.3111 7.26701C11.2687 7.29973 11.2328 7.33573 11.1969 7.37499C11.161 7.41426 11.1316 7.46007 11.1055 7.50588C11.037 7.62696 10.9978 7.76766 10.9978 7.91492C10.9978 8.36976 11.3666 8.73952 11.8201 8.73952C12.2737 8.73952 12.6424 8.36976 12.6424 7.91492C12.6424 7.5157 12.3553 7.17866 11.98 7.1034C11.9604 7.09685 11.9343 7.09358 11.9082 7.09031V7.09031Z" fill="#E75A5A"/>
<path id="Shape_5" d="M5.03953 8.73955C5.49309 8.73955 5.86181 8.36978 5.86181 7.91494C5.86181 7.4601 5.49309 7.09033 5.03953 7.09033C4.58596 7.09033 4.21724 7.4601 4.21724 7.91494C4.21724 8.36978 4.58596 8.73955 5.03953 8.73955Z" fill="#E75A5A"/>
<path id="Shape_6" d="M11.8266 9.37764C11.1479 9.37764 10.5769 8.90971 10.4137 8.28143H9.86556C9.70241 8.90971 9.13137 9.37764 8.45266 9.37764C8.37435 9.37764 8.2993 9.37109 8.22751 9.36128C8.03826 9.65251 7.81311 9.92083 7.5488 10.1695C7.08218 10.6113 6.55357 10.9385 5.98254 11.1447L5.84876 11.1937L5.72476 11.1283C5.03952 10.7749 4.68711 10.0583 4.81111 9.36455C4.7328 9.35146 4.65775 9.33183 4.58596 9.30565C4.57291 9.32855 4.56312 9.35473 4.55007 9.38091C4.34123 9.81285 4.12261 10.2579 4.04429 10.7356C3.95946 11.2461 3.92356 12.1787 4.64143 12.6761C4.95468 12.892 5.28425 13 5.65297 13C6.36105 13 7.1246 12.6204 7.93384 12.218C8.56687 11.9038 9.21948 11.5766 9.89819 11.4097C10.156 11.3475 10.417 11.3083 10.6683 11.2723C11.1284 11.2068 11.5656 11.1414 11.9213 10.9352C12.2998 10.716 12.5576 10.3495 12.6294 9.93065C12.675 9.67541 12.6489 9.4169 12.5641 9.17803C12.3487 9.30238 12.0975 9.37764 11.8266 9.37764V9.37764Z" fill="#E75A5A"/>
</g>
</g>
</svg>
