<svg width="16" height="16" viewBox="0 0 16 16" fill="none" xmlns="http://www.w3.org/2000/svg">
<path d="M8 12.32C7.03013 12.3189 6.08882 11.9916 5.32757 11.3906C4.56632 10.7896 4.02939 9.95004 3.8032 9.00691C4.15394 9.4703 4.73872 9.86541 5.48488 10.1431C6.23103 10.4209 7.10564 10.569 8 10.569C8.8963 10.5685 9.77245 10.4192 10.5191 10.1399C11.2657 9.86064 11.8498 9.46368 12.1984 8.99859C11.9738 9.94354 11.4373 10.7852 10.6756 11.3879C9.91384 11.9905 8.97129 12.3189 8 12.3201V12.32ZM3.80161 6.99963C4.02624 6.05468 4.56271 5.21298 5.32444 4.61035C6.08617 4.00773 7.02872 3.67933 8 3.67814C8.96988 3.67923 9.91118 4.00661 10.6724 4.60757C11.4337 5.20853 11.9706 6.04814 12.1968 6.99127C11.8461 6.52788 11.2613 6.13276 10.5151 5.85503C9.76898 5.5773 8.89437 5.42921 8 5.42915C7.1037 5.42972 6.22756 5.57896 5.48091 5.85825C4.73427 6.13754 4.1502 6.5345 3.80161 6.99959V6.99963Z" fill="#E19235"/>
<path d="M4.46001 2.42288C4.95987 2.42288 5.36509 2.82809 5.36509 3.32795C5.36509 3.82782 4.95987 4.23303 4.46001 4.23303C3.96015 4.23303 3.55493 3.82782 3.55493 3.32795C3.55493 2.82809 3.96015 2.42288 4.46001 2.42288Z" fill="#8E95B4"/>
<path d="M3.852 11.3913C4.21909 11.3913 4.51668 11.6889 4.51668 12.056C4.51668 12.4231 4.21909 12.7207 3.852 12.7207C3.48491 12.7207 3.18732 12.4231 3.18732 12.056C3.18732 11.6889 3.48491 11.3913 3.852 11.3913Z" fill="#6B7394"/>
<path d="M11.672 11.8154C12.1406 11.8154 12.5205 12.1953 12.5205 12.6639C12.5205 13.1326 12.1406 13.5125 11.672 13.5125C11.2034 13.5125 10.8235 13.1326 10.8235 12.6639C10.8235 12.1953 11.2034 11.8154 11.672 11.8154Z" fill="#6B7394"/>
</svg>
