<svg width="16" height="16" viewBox="0 0 16 16" fill="none" xmlns="http://www.w3.org/2000/svg">
<g id="less">
<path id="Shape" fill-rule="evenodd" clip-rule="evenodd" d="M6.06815 6.76678C5.289 6.76678 4.54187 7.41074 4.56322 8.42417C4.56322 9.46928 5.25698 10.0816 6.17488 10.0816C6.55912 10.0816 6.98605 9.94433 7.31692 9.72264L6.99672 9.16314C6.76191 9.30037 6.53777 9.36371 6.30296 9.36371C5.87603 9.36371 5.54516 9.16314 5.45977 8.67753H7.39163C7.4023 8.60364 7.42365 8.45584 7.42365 8.28694C7.43432 7.43185 6.9647 6.76678 6.06815 6.76678ZM9.07759 8.09805C9.1228 8.11456 9.16945 8.13159 9.21675 8.1497C9.63301 8.28694 10.092 8.52974 10.092 9.11035C10.092 9.69097 9.63301 10.1343 8.77915 10.1343C8.37357 10.1343 7.8826 9.95488 7.5624 9.69097L7.97866 9.07868C8.26683 9.30037 8.53366 9.40594 8.8005 9.40594C9.08867 9.40594 9.21675 9.30037 9.21675 9.14202C9.21675 8.94565 8.93977 8.8406 8.63483 8.72495L8.56568 8.69864C8.18145 8.55085 7.7225 8.28694 7.7225 7.76966C7.7225 7.18905 8.21347 6.77734 8.93925 6.77734C9.43022 6.77734 9.79311 6.98847 10.0599 7.18905L9.63301 7.74855C9.3982 7.57964 9.18473 7.48463 8.94992 7.48463C8.71511 7.48463 8.58703 7.57964 8.58703 7.73799C8.58703 7.91894 8.80654 7.99909 9.07759 8.09805ZM11.6557 8.09478L11.6557 8.09479C11.7026 8.11231 11.7509 8.13039 11.7997 8.1497C12.2159 8.28694 12.6749 8.52974 12.6749 9.11035C12.6749 9.69097 12.2159 10.1343 11.3621 10.1343C10.9565 10.1343 10.4655 9.95488 10.1453 9.69097L10.5723 9.07868C10.8604 9.30037 11.1273 9.40594 11.3941 9.40594C11.6823 9.40594 11.8104 9.30037 11.8104 9.14202C11.8104 8.94565 11.5334 8.8406 11.2284 8.72495L11.1593 8.69864C10.775 8.55085 10.3161 8.28694 10.3161 7.76966C10.3161 7.18905 10.8071 6.77734 11.5328 6.77734C12.0238 6.77734 12.3867 6.98847 12.6535 7.18905L12.2266 7.74855C11.9918 7.57964 11.7783 7.48463 11.5435 7.48463C11.3087 7.48463 11.1806 7.57964 11.1806 7.73799C11.1806 7.91695 11.3953 7.99731 11.6557 8.09478ZM6.07882 7.47408C5.77997 7.47408 5.52381 7.67465 5.45977 8.09692H6.61248C6.61248 7.73799 6.46306 7.47408 6.07882 7.47408Z" fill="#69A7D3"/>
<path id="Path" fill-rule="evenodd" clip-rule="evenodd" d="M3.39082 5.5C3.3161 5.5 2.82348 5.5 2.82348 5.5C2.24713 5.5 1.99097 5.72169 1.99097 6.40787C1.99097 6.8618 2.05501 7.11516 2.05501 7.50576C2.05501 7.72745 1.91626 7.95969 1.5 7.98081V8.52975C1.91626 8.54031 2.05501 8.77255 2.05501 8.99424C2.05501 9.38484 1.99097 9.61708 1.99097 10.071C1.99097 10.7572 2.24713 10.9789 2.81281 10.9789H3.22906V10.4933H3.10099C2.83415 10.4933 2.74877 10.3877 2.74877 10.0393C2.74877 9.69098 2.78079 9.39539 2.78079 9.0048C2.78079 8.51919 2.62069 8.32917 2.30049 8.25528V8.22361C2.62069 8.14971 2.78079 7.95969 2.78079 7.47409C2.78079 7.09405 2.74877 6.78791 2.74877 6.43954C2.74877 6.09117 2.82348 5.99616 3.10099 5.99616H3.39082C3.39082 5.81374 3.39082 5.61331 3.39082 5.5Z" fill="#00B6C2"/>
<path id="Path_2" fill-rule="evenodd" clip-rule="evenodd" d="M13.945 7.50576C13.945 7.09405 14.009 6.85125 14.009 6.40787C14.009 5.72169 13.7529 5.5 13.1872 5.5H12.7709V5.9856H12.899C13.1872 5.9856 13.2512 6.08061 13.2512 6.42898C13.2512 6.75624 13.2192 7.08349 13.2192 7.46353C13.2192 7.94914 13.3793 8.13916 13.6995 8.21305V8.24472C13.3793 8.31862 13.2192 8.50864 13.2192 8.99424C13.2192 9.37428 13.2512 9.68042 13.2512 10.0288C13.2512 10.3877 13.1765 10.4827 12.899 10.4827V10.4933H12.7709V11H13.1872C13.7529 11 14.009 10.7783 14.009 10.0921C14.009 9.6382 13.945 9.40595 13.945 8.99424C13.945 8.77255 14.0837 8.54031 14.5 8.51919V7.97025C14.0837 7.95969 13.945 7.72745 13.945 7.50576Z" fill="#00B6C2"/>
<path id="Path_3" fill-rule="evenodd" clip-rule="evenodd" d="M4.33908 9.07869V6.00672V5.54223V5.5L3.81936 5.5C3.81936 5.5 3.43826 5.5 3.38916 5.5C3.38916 5.61813 3.38916 5.99616 3.38916 5.99616C3.38916 6.68234 3.38916 9.02591 3.38916 9.02591C3.38916 9.66987 3.6133 10.0921 4.26437 10.0921C4.46716 10.0921 4.62726 10.0605 4.74466 10.0182L4.63793 9.33205C4.57389 9.34261 4.33908 9.27927 4.33908 9.07869Z" fill="#69A7D3"/>
</g>
</svg>
