<svg width="24" height="24" viewBox="0 0 24 24" fill="none" xmlns="http://www.w3.org/2000/svg">
<g id="license">
<mask id="mask0" mask-type="alpha" maskUnits="userSpaceOnUse" x="0" y="0" width="24" height="24">
<circle id="Ellipse" cx="12" cy="12" r="12" fill="#212431"/>
</mask>
<g mask="url(#mask0)">
<circle id="Ellipse_2" cx="12" cy="12" r="12" fill="#3F4459"/>
<g id="Group">
<path id="&#194;&#169;" fill-rule="evenodd" clip-rule="evenodd" d="M11.9949 20C7.5409 20 4 16.4591 4 12.0051C4 7.5409 7.53075 4 11.9949 4C16.4692 4 20 7.5409 20 12.0051C20 16.4591 16.4591 20 11.9949 20ZM11.9949 18.3158C15.546 18.3158 18.3361 15.5257 18.3361 12.0051C18.3361 8.46417 15.546 5.6842 11.9949 5.6842C8.45403 5.6842 5.66393 8.47431 5.66393 12.0051C5.66393 15.5257 8.45403 18.3158 11.9949 18.3158Z" fill="#EE9D5C"/>
</g>
<path id="Path" fill-rule="evenodd" clip-rule="evenodd" d="M16 10.9256H13.9482C13.7844 10.1387 13.0969 9.65448 12.1801 9.65448C10.9468 9.65448 10.1937 10.5322 10.1937 11.9849C10.1937 13.4678 10.9468 14.3455 12.1801 14.3455C13.1405 14.3455 13.7844 13.9016 13.9482 13.1349H16C15.7926 14.9105 14.3301 16 12.1692 16C9.59345 16 8 14.4565 8 11.9849C8 9.54351 9.60437 8 12.1583 8C14.2756 8 15.7926 9.15006 16 10.9256Z" fill="#F4BF75"/>
</g>
</g>
</svg>
