<svg width="16" height="16" viewBox="0 0 16 16" fill="none" xmlns="http://www.w3.org/2000/svg">
<g id="matlab">
<path id="Shape" d="M4.87758 7.50002L2 8.50462L4.22532 10L6 8.33068L4.87749 7.5L4.87758 7.50002Z" fill="#00B6C2"/>
<path id="Shape_2" d="M10.1894 2.80542C9.93078 2.83915 10.2663 2.52028 9.89519 2.8054C9.54032 3.07803 8.51732 4.70301 7.97052 5.24969C7.48404 5.73607 7.29148 5.48037 6.78621 5.88621C6.28018 6.29266 5.5 7.10522 5.5 7.10522L6.76069 8.00002L8.75937 5.36247C9.23127 4.73973 9.22624 4.65777 9.4834 4.00434C9.6092 3.68465 9.83336 3.43896 10.0303 3.13812C10.2764 2.76231 10.3597 2.7832 10.1894 2.80542Z" fill="#69A7D3"/>
<path id="Shape_3" d="M10.1814 2.5C9.59826 2.49649 9.02377 5.06314 8.02605 7.03222C7.00873 9.04015 5 10.3343 5 10.3343C5.33866 10.4883 5.64688 10.426 6.01159 10.7712C6.26106 11.0731 6.98318 12.5635 7.41372 13.5C7.41372 13.5 7.76744 13.3077 8.21563 12.9828C8.66383 12.6579 9.20648 12.2004 9.58436 11.67C10.0858 10.9661 10.4777 10.53 10.8098 10.2643C11.1419 9.99855 11.4142 9.90317 11.6764 9.88069C12.6134 9.8003 14 11.4828 14 11.4828C14 11.4828 11.0965 2.50562 10.1813 2.50002L10.1814 2.5Z" fill="#E75A5A"/>
</g>
</svg>
