<svg width="16" height="16" viewBox="0 0 16 16" fill="none" xmlns="http://www.w3.org/2000/svg">
<g id="movie">
<path id="Shape" fill-rule="evenodd" clip-rule="evenodd" d="M3 5.5H13C13.276 5.5 13.5 5.7235 13.5 6V13C13.5 13.2765 13.276 13.5 13 13.5H3C2.724 13.5 2.5 13.2765 2.5 13V6C2.5 5.7235 2.724 5.5 3 5.5ZM10 9.5L6.5 7.5V11.5L10 9.5Z" fill="#E75A5A"/>
<path id="Rectangle-path" d="M2.11004 4.14017C2.05484 3.8696 2.22942 3.60552 2.49999 3.55032L12.1515 1.5812C12.4221 1.526 12.6862 1.70059 12.7414 1.97115V1.97115C12.7966 2.24172 12.622 2.5058 12.3514 2.561L2.69989 4.53012C2.42932 4.58532 2.16524 4.41073 2.11004 4.14017V4.14017Z" fill="#E0AF00"/>
</g>
</svg>
