<svg width="16" height="16" viewBox="0 0 16 16" fill="none" xmlns="http://www.w3.org/2000/svg">
<path d="M12.4831 8.14815C12.1204 6.8247 10.2428 5.66667 8 5.66667C5.71225 5.66667 3.87957 6.8247 3.51685 8.14815L3.08427 8.55556L2.47191 7.25926L2 5.07407L2.80899 5.44444C3.0302 5.19849 3.18793 5.00702 3.75281 4.66667L4.29213 3.44444L5.20225 4.22222C5.81474 4.06202 6.42372 3.89411 7.1236 3.92593L8 3L8.8764 3.92593C9.57628 3.89411 10.1853 4.06202 10.7978 4.22222L11.7079 3.44444L12.2472 4.66667C12.8121 5.00702 12.9698 5.19849 13.191 5.44444L14 5.07407L13.5281 7.25926L12.9157 8.55556L12.4831 8.14815Z" fill="#FEE17C"/>
<path d="M12.9888 8.2592L12.4832 8.11106L11.573 9.40735L10.3259 9.81476L8.00001 8.37032L5.67417 9.81476L4.42698 9.40735L3.51687 8.11106L3.01125 8.2592L2.47192 7.22217L3.51687 10.4814C4.25512 12.1699 6.52905 12.9999 8.00001 12.9999C9.47098 12.9999 11.7449 12.1699 12.4832 10.4814L13.5281 7.22217L12.9888 8.2592Z" fill="#555B77"/>
</svg>
