<svg width="16" height="16" viewBox="0 0 16 16" fill="none" xmlns="http://www.w3.org/2000/svg">
<g id="ocaml">
<path id="Vector" d="M2 7.24065V4.28284C2 3.44846 2.67734 2.77112 3.51172 2.77112H12.4883C13.3227 2.77112 14 3.44846 14 4.28284V13.2266H9.01953C9.01953 13.2266 8.68906 12.3594 8.62578 11.9328C8.60938 11.8227 8.64219 11.7125 8.60703 11.6094C8.57891 11.5203 8.51328 11.511 8.47109 11.4383C8.35859 11.2461 8.24141 10.9977 8.23203 10.7633C8.22266 10.5524 8.14531 10.3602 8.13359 10.1516C8.12891 10.0508 8.14062 9.94534 8.13594 9.8469C8.13359 9.79768 8.12891 9.68518 8.10547 9.61487L8.13125 9.54924C8.11953 9.52581 8.35625 9.53518 8.42656 9.53518C8.54609 9.53752 8.65859 9.54221 8.77813 9.54924C9.02188 9.56096 9.24219 9.55862 9.47891 9.52112C10.0063 9.43909 10.25 9.22346 10.3742 9.1344C10.8594 8.78518 11.0797 8.21331 11.0797 8.21331C11.1594 8.03518 11.1594 7.71643 11.3305 7.57346C11.532 7.40471 11.8719 7.41643 12.1039 7.31331C12.2398 7.25237 12.3383 7.21956 12.4766 7.25002C12.5797 7.27112 12.7648 7.39065 12.807 7.22424C12.7719 7.20315 12.7602 7.16096 12.7414 7.13987C12.9336 7.12112 12.7461 6.67815 12.6688 6.58909C12.5516 6.45315 12.357 6.38987 12.1508 6.33596C11.9047 6.27034 11.682 6.19534 11.45 6.23987C11.0445 6.31956 11.075 6.08752 10.8359 6.08752C10.55 6.08752 10.0414 6.10159 9.95234 6.38049C9.9125 6.5094 9.86797 6.51643 9.79766 6.61487C9.73672 6.69924 9.80937 6.77659 9.77656 6.87268C9.74609 6.97346 9.69922 7.32502 9.65 7.44924C9.56797 7.65784 9.47188 7.91799 9.29141 7.91799C9.04063 7.94846 8.84141 7.95784 8.6375 7.88284C8.51563 7.83831 8.30937 7.76799 8.20625 7.72581C7.73516 7.52893 7.65781 7.31096 7.65781 7.31096C7.60625 7.22659 7.10937 6.19065 7.03672 6.01252C6.94297 5.78049 6.81172 5.6094 6.71797 5.52268C6.57266 5.39143 6.43672 5.18987 6.13906 5.24846C6.08516 5.25784 5.89297 5.26721 5.74531 5.39143C5.64453 5.47581 5.61406 5.64924 5.52031 5.7969C5.46641 5.88127 5.37266 6.12502 5.28594 6.32659C5.225 6.46721 5.19687 6.57268 5.13359 6.62424C5.08203 6.66409 4.95781 6.76487 4.79609 6.60081C4.73516 6.53752 4.58516 6.27502 4.475 6.08518C4.15391 5.52737 4.02734 5.27659 3.65938 5.27424C3.19063 5.2719 3.15547 5.53674 2.94922 5.91877C2.94922 5.91643 2.74297 6.69456 2 7.24065ZM2 10.6649V13.2266H4.325C4.325 13.2266 4.5125 12.5024 4.55469 12.3547C4.58984 12.2422 4.63437 12.1508 4.65312 12.036C4.66953 11.9258 4.65078 11.8203 4.64141 11.7219C4.61797 11.4711 4.82422 11.3821 4.92266 11.1664C5.01172 10.9719 5.06328 10.7516 5.13594 10.5524C5.20625 10.3625 5.31641 10.093 5.50625 9.9969C5.48281 9.97112 5.1125 9.9594 5.01406 9.94768C4.70938 9.91487 4.27578 9.82346 4.07891 9.77659C3.95937 9.74846 3.56094 9.60549 3.47422 9.56565C3.27031 9.4719 3.13672 9.21877 2.97734 9.24456C2.87656 9.26096 2.77813 9.29612 2.71484 9.3969C2.66328 9.48127 2.64688 9.62424 2.60938 9.72034C2.56719 9.83284 2.49688 9.93596 2.43359 10.0414C2.32344 10.236 2.07266 10.4469 2 10.6649ZM8.46641 12.8352C8.42187 12.7414 8.36563 12.5586 8.32812 12.4766C8.29297 12.4016 8.18516 12.2047 8.13125 12.1414C8.01406 12.0031 7.98594 11.9938 7.95078 11.8203C7.88984 11.518 7.73281 10.9696 7.54531 10.5922C7.44922 10.3977 7.2875 10.2336 7.13984 10.093C7.01094 9.96877 6.72266 9.76018 6.67109 9.76956C6.19766 9.86331 6.05234 10.3274 5.82969 10.6953C5.70547 10.8992 5.57656 11.0703 5.47812 11.2883C5.38906 11.4875 5.39609 11.7078 5.24375 11.8789C5.08672 12.0547 4.98359 12.2399 4.90625 12.4672C4.89219 12.5094 4.75859 13.2266 4.75859 13.2266H8.61875L8.61172 13.2102C8.56016 13.0625 8.49219 12.8914 8.46641 12.8352Z" fill="#E0AF00"/>
</g>
</svg>
