<svg width="16" height="16" viewBox="0 0 16 16" fill="none" xmlns="http://www.w3.org/2000/svg">
<g id="polymer">
<path id="Combined Shape" fill-rule="evenodd" clip-rule="evenodd" d="M9.68681 3.01971L8.24999 5.50656H11.1302L12.5736 3.01971H9.68681ZM8.24999 5.50656L6.80659 7.99998L6.80659 7.99997L5.36977 10.4934H8.25L9.68681 7.99998L9.68682 7.99997L11.1302 5.50656H8.24999ZM3.92636 12.9802H6.80659L8.25 10.4934H5.36977L3.92636 12.9802Z" fill="#D14748"/>
<path id="Combined Shape_2" fill-rule="evenodd" clip-rule="evenodd" d="M2.48955 5.50656L3.92637 3.01971H6.8066L5.36978 5.50656H2.48955ZM2.48955 5.50656L1.04614 7.99998L2.48955 10.4934H5.36978L3.92637 7.99998L5.36978 5.50656H2.48955ZM3.92637 12.9802L5.36978 10.4934H2.48955L3.92637 12.9802Z" fill="#7ACCEE"/>
<path id="Combined Shape_3" fill-rule="evenodd" clip-rule="evenodd" d="M14.0104 5.50656L12.5736 3.01971L11.1302 5.50656H14.0104ZM14.0105 5.50656L15.4539 7.99998L14.0104 10.4934H11.1302L12.5736 7.99997L11.1302 5.50656H14.0105ZM11.1302 10.4934L9.69341 12.9802H12.5736L14.0104 10.4934H11.1302Z" fill="#7ACCEE"/>
</g>
</svg>
