<svg width="16" height="16" viewBox="0 0 16 16" fill="none" xmlns="http://www.w3.org/2000/svg">
<g id="procfile">
<g id="heroku">
<path id="Shape" fill-rule="evenodd" clip-rule="evenodd" d="M3.64692 2.02271H12.3535C12.9544 2.02271 13.4418 2.50449 13.4418 3.09865V12.9018C13.4418 13.4959 12.9544 13.9777 12.3535 13.9777H3.64692C3.04593 13.9777 2.5586 13.4959 2.5586 12.9018V3.09865C2.5586 2.50449 3.04593 2.02271 3.64692 2.02271ZM6.63979 10.989L5.27939 9.79345V12.1845L6.63979 10.989ZM9.51174 12.1845V8.61439C9.50584 8.33539 9.36995 8.00021 8.75596 8.00021C7.52647 8.00021 6.14733 8.61156 6.13357 8.61768L5.27939 9.00024V3.81596H6.48863V7.20983C7.09235 7.01556 7.93625 6.80471 8.75596 6.80471C9.50342 6.80471 9.95084 7.09521 10.1945 7.33895C10.7146 7.85899 10.7217 8.52144 10.721 8.59796V12.1845H9.51174ZM8.60481 5.75864H9.81405C10.3609 5.14595 10.6394 4.495 10.721 3.81596H9.51174C9.37842 4.49351 9.08004 5.14221 8.60481 5.75864Z" fill="#8251A8"/>
</g>
</g>
</svg>
