<svg width="16" height="16" viewBox="0 0 16 16" fill="none" xmlns="http://www.w3.org/2000/svg">
<g id="protobuf">
<g id="file_type_protobuf">
<path id="Shape" fill-rule="evenodd" clip-rule="evenodd" d="M8 1L1.9935 4.51V11.51L8 15L14 11.45L14.0065 4.55L8 1ZM13.477 11.15L8 14.39L2.519 11.204V4.81401L8 1.61001L13.483 4.85001L13.477 11.15Z" fill="#6B7394"/>
<path id="Path" fill-rule="evenodd" clip-rule="evenodd" d="M12.7845 6.82703L9.973 8.48203L9.9715 12.445L12.795 10.7825L12.7845 6.82703V6.82703Z" fill="#00B6C2"/>
<path id="Path_2" fill-rule="evenodd" clip-rule="evenodd" d="M11.641 6.15149L12.7845 6.82699L9.973 8.48199L9.9715 12.445L8.6635 11.685L8.674 7.93749L11.641 6.15149V6.15149Z" fill="#4C71F6"/>
<path id="Path_3" fill-rule="evenodd" clip-rule="evenodd" d="M11.256 5.17505L11.257 5.90805L8.2055 7.74905L8.209 11.7985L7.499 12.2155L7.497 7.42805L11.256 5.17505V5.17505Z" fill="#9DBD58"/>
<path id="Path_4" fill-rule="evenodd" clip-rule="evenodd" d="M10.004 4.43555L11.256 5.17505L7.497 7.42805L7.499 12.2155L6.097 11.4005L6.0945 6.70655L10.004 4.43555V4.43555Z" fill="#3DB931"/>
<path id="Path_5" fill-rule="evenodd" clip-rule="evenodd" d="M9.613 3.30298V4.18698L5.605 6.53698V11.586L4.904 11.994L4.9175 6.13848L9.613 3.30298V3.30298Z" fill="#AA759F"/>
<path id="Path_6" fill-rule="evenodd" clip-rule="evenodd" d="M8.08 2.39197L3.265 5.19697L3.2645 11.0355L4.9135 11.994L4.9175 6.13847L9.6175 3.30297L8.08 2.39197V2.39197Z" fill="#E382BC"/>
</g>
</g>
</svg>
