<svg width="16" height="16" viewBox="0 0 16 16" fill="none" xmlns="http://www.w3.org/2000/svg">
<g id="psd">
<path id="Shape" d="M8 2.5C11.0376 2.5 13.5 4.96243 13.5 8C13.5 11.0376 11.0376 13.5 8 13.5C4.96243 13.5 2.5 11.0376 2.5 8C2.5 4.96243 4.96243 2.5 8 2.5Z" fill="#212431" stroke="#555B77"/>
<g id="Group">
<path id="Combined Shape" fill-rule="evenodd" clip-rule="evenodd" d="M7.19036 5.77609C7.39295 5.84215 7.56334 5.93306 7.70151 6.04879H7.70229C7.83216 6.16453 7.93553 6.3133 8.01242 6.4951C8.0893 6.6769 8.12774 6.87509 8.12774 7.08965C8.12774 7.31215 8.09527 7.51033 8.03034 7.6842C7.9654 7.85808 7.87606 8.00685 7.76229 8.13051C7.60022 8.2954 7.4197 8.4233 7.22075 8.5142C7.02179 8.6051 6.76803 8.65874 6.45947 8.67512L6.23428 8.68146L6.13065 8.68781V10.0997H5.22989V5.70237L5.63741 5.68969C5.90961 5.68123 6.18363 5.677 6.45947 5.677C6.74414 5.677 6.98777 5.71003 7.19036 5.77609ZM6.26468 7.90694H6.43533V7.90615C6.67896 7.89769 6.87168 7.82555 7.0135 7.68973C7.15531 7.55391 7.22622 7.37026 7.22622 7.13878C7.22674 6.93214 7.16596 6.75668 7.04389 6.61241C6.92181 6.46813 6.74311 6.39176 6.5078 6.38331L6.25222 6.37696L6.13066 6.38331V7.89426L6.26468 7.90694Z" fill="white"/>
<path id="Path" fill-rule="evenodd" clip-rule="evenodd" d="M9.90509 8.04247C9.70198 7.96795 9.56406 7.90612 9.49134 7.85697C9.41861 7.80782 9.38199 7.74176 9.38147 7.65879C9.38095 7.57581 9.41342 7.51187 9.47887 7.46694C9.54432 7.42202 9.63757 7.3993 9.7586 7.39877C9.89678 7.39877 10.0531 7.4318 10.2277 7.49786C10.4022 7.56392 10.5261 7.61756 10.5994 7.65879V6.9152C10.5017 6.86552 10.3799 6.81585 10.2339 6.76617C10.0879 6.71649 9.92146 6.69165 9.73445 6.69165C9.33654 6.69165 9.01992 6.79286 8.7846 6.99527C8.54928 7.19768 8.43163 7.45585 8.43163 7.76977C8.43163 7.9595 8.50071 8.12465 8.63889 8.26523C8.77707 8.4058 9.00849 8.5337 9.33316 8.64891C9.51965 8.71497 9.64536 8.78922 9.71029 8.87167C9.77523 8.95411 9.80769 9.03682 9.80769 9.11979C9.80769 9.21069 9.77523 9.28098 9.71029 9.33066C9.64536 9.38034 9.53575 9.40518 9.38147 9.40518C9.2355 9.40518 9.07109 9.37215 8.88824 9.30609C8.70538 9.24002 8.56954 9.17819 8.48072 9.12059V9.12059V9.85149C8.60227 9.91755 8.74434 9.97753 8.90694 10.0314C9.06953 10.0853 9.22771 10.1163 9.38147 10.1242C9.84432 10.1326 10.1913 10.0314 10.4225 9.82057C10.6536 9.6097 10.7692 9.35154 10.7692 9.04607C10.7609 8.80666 10.69 8.60637 10.5565 8.44518C10.423 8.28399 10.2059 8.14975 9.90509 8.04247V8.04247V8.04247Z" fill="white"/>
</g>
</g>
</svg>
