<svg width="16" height="16" viewBox="0 0 16 16" fill="none" xmlns="http://www.w3.org/2000/svg">
<g id="pug">
<g id="__pug-logo-mono-isolated">
<path id="Combined Shape" fill-rule="evenodd" clip-rule="evenodd" d="M13.9985 6.89654C13.9985 9.3688 11.4291 11.373 8.25946 11.373C5.08986 11.373 2.52039 9.3688 2.52039 6.89654C2.52039 4.42427 5.08986 2.4201 8.25946 2.4201C11.4291 2.4201 13.9985 4.42427 13.9985 6.89654ZM8.24948 6.30239C9.37271 6.30239 10.3393 6.92722 10.8492 7.56219C11.2563 8.06344 11.2352 8.34675 11.2062 8.73656C11.1977 8.85105 11.1885 8.97474 11.1892 9.11583C11.1892 10.8193 10.7419 10.8531 10.2989 10.8865C10.157 10.8972 10.0155 10.9079 9.88933 10.9734C9.47517 11.178 9.057 11.1606 8.62543 11.1426L8.62539 11.1426C8.50127 11.1374 8.37604 11.1322 8.24948 11.1322H8.23948C8.11529 11.1322 7.99239 11.1371 7.87056 11.1419H7.87053H7.87049H7.87046H7.87043H7.8704H7.87036C7.43637 11.1591 7.01597 11.1757 6.59962 10.9701C6.47267 10.9045 6.33082 10.8938 6.18876 10.8831C5.74524 10.8497 5.29974 10.8162 5.29974 9.11245C5.29974 8.97342 5.29012 8.85131 5.28122 8.73816C5.25053 8.34829 5.22821 8.0648 5.63637 7.56219C6.143 6.92722 7.10958 6.30239 8.23614 6.30239H8.23948H8.24948ZM4.57979 7.35618C5.09337 7.35618 5.50971 6.93429 5.50971 6.41386C5.50971 5.89343 5.09337 5.47154 4.57979 5.47154C4.06621 5.47154 3.64987 5.89343 3.64987 6.41386C3.64987 6.93429 4.06621 7.35618 4.57979 7.35618ZM12.8391 6.41386C12.8391 6.93429 12.4227 7.35618 11.9091 7.35618C11.3956 7.35618 10.9792 6.93429 10.9792 6.41386C10.9792 5.89343 11.3956 5.47154 11.9091 5.47154C12.4227 5.47154 12.8391 5.89343 12.8391 6.41386ZM8.17615 7.80875H8.31614V9.72837C8.29668 9.72595 8.27776 9.72438 8.25945 9.72379C8.23278 9.72464 8.20496 9.72749 8.17615 9.732V7.80875ZM8.17615 9.732C8.04733 9.75216 7.89884 9.80546 7.74525 9.86059C7.65854 9.89172 7.5702 9.92342 7.48286 9.95008C7.3748 9.98751 7.26842 10.0158 7.18746 10.0374L7.18745 10.0374L7.18743 10.0374C7.07113 10.0684 7.00727 10.0854 7.06623 10.0953C7.23031 10.1018 7.40277 10.0751 7.58943 10.0461C7.79331 10.0145 8.01412 9.98033 8.25945 9.98386C8.50222 9.98034 8.72153 10.0143 8.92489 10.0458C9.11242 10.0749 9.28639 10.1018 9.45268 10.0953C9.50928 10.0877 9.45268 10.0724 9.34515 10.0435C9.26271 10.0214 9.15032 9.99112 9.03605 9.95008C8.94887 9.92347 8.86037 9.89184 8.77347 9.86077L8.77345 9.86076L8.77343 9.86075C8.60862 9.80183 8.44954 9.74497 8.31614 9.72837V9.82848H8.17615V9.732ZM8.21614 13.0202C8.59535 13.0202 8.90275 12.7087 8.90275 12.3244C8.90275 11.9402 8.59535 11.6287 8.21614 11.6287C7.83694 11.6287 7.52954 11.9402 7.52954 12.3244C7.52954 12.7087 7.83694 13.0202 8.21614 13.0202ZM8.83274 12.3278C8.83274 12.6729 8.55667 12.9527 8.21612 12.9527C7.87558 12.9527 7.59951 12.6729 7.59951 12.3278C7.59951 11.9827 7.87558 11.703 8.21612 11.703C8.55667 11.703 8.83274 11.9827 8.83274 12.3278ZM8.39612 12.1286C8.43279 12.1623 8.45279 12.2096 8.45279 12.2772C8.45279 12.3447 8.43279 12.392 8.39612 12.4258C8.35613 12.4562 8.29947 12.4731 8.21947 12.4731H8.14948V12.625H8.02949V12.0813H8.21947C8.29947 12.0813 8.35946 12.0982 8.39612 12.1286ZM8.32944 12.2704C8.32944 12.3008 8.32277 12.3244 8.30944 12.3413C8.29611 12.3582 8.26945 12.3684 8.22945 12.365H8.14946V12.1826H8.21612C8.25611 12.1826 8.28611 12.1893 8.30278 12.2029C8.31944 12.2164 8.32944 12.24 8.32944 12.2704Z" fill="#E0AF00"/>
<path id="Shape" fill-rule="evenodd" clip-rule="evenodd" d="M11.2492 10.4567C9.28599 11.1896 7.12951 11.1896 5.16636 10.4567C5.14636 10.4499 5.13636 10.4398 5.10303 10.4263C5.10303 10.5546 5.10303 10.6863 5.10303 10.8147C5.10303 10.9869 5.24301 11.1862 5.40633 11.247C7.21617 11.9225 9.19933 11.9225 11.0092 11.247C11.1758 11.1862 11.3025 10.9869 11.3025 10.8147C11.3025 10.6863 11.3025 10.5546 11.3025 10.4263C11.3025 10.4364 11.2691 10.4465 11.2492 10.4567V10.4567Z" fill="#AB633B"/>
<path id="Shape_2" fill-rule="evenodd" clip-rule="evenodd" d="M6.28295 2.94181C6.28295 2.94181 2.57328 3.46194 2.89325 7.19406C2.90991 7.3832 2.15331 6.38684 1.5667 6.08287C0.980083 5.77889 1.00008 4.79605 1.00008 4.79605C1.00008 4.79605 0.990082 3.08366 3.35987 2.57704C5.72633 2.0738 6.28295 2.94181 6.28295 2.94181V2.94181Z" fill="#AB633B"/>
<path id="Shape_3" fill-rule="evenodd" clip-rule="evenodd" d="M10.1926 2.94181C10.1926 2.94181 13.9023 3.46194 13.5823 7.19406C13.5656 7.3832 14.3222 6.38684 14.9088 6.08287C15.4955 5.77889 15.4755 4.79605 15.4755 4.79605C15.4755 4.79605 15.4855 3.08366 13.1157 2.57704C10.7492 2.0738 10.1926 2.94181 10.1926 2.94181V2.94181Z" fill="#AB633B"/>
<g id="Group">
<path id="Shape_4" fill-rule="evenodd" clip-rule="evenodd" d="M9.11266 7.93571C9.22265 8.18227 8.84268 8.58419 8.2394 8.58419C7.63612 8.58419 7.25615 8.18227 7.36614 7.93571C7.4728 7.6824 7.8561 7.60134 8.2394 7.59796C8.6227 7.60134 9.006 7.6824 9.11266 7.93571V7.93571Z" fill="#AB633B"/>
</g>
</g>
</g>
</svg>
