<svg width="16" height="16" viewBox="0 0 16 16" fill="none" xmlns="http://www.w3.org/2000/svg">
<path d="M11.0986 11.2449L10.0467 10.2627H5.4274L6.47945 11.2449H11.0986Z" fill="#99A7C2"/>
<path d="M6.47944 7.80164L5.42755 8.78386H10.0467L11.0986 7.80164H6.47944Z" fill="#99A7C2"/>
<path d="M11.0983 6.32252L10.0467 5.33997H5.42789L6.47945 6.32252H11.0983Z" fill="#99A7C2"/>
<path d="M4.94158 7.29469L4.24662 6.59973L1.6702 9.17598C1.57776 9.26843 1.52665 9.39212 1.52698 9.5233C1.52698 9.65464 1.57776 9.77801 1.6702 9.87046L4.24662 12.4469L4.94158 11.7524L2.71265 9.5233L4.94158 7.29469Z" fill="#99A7C2"/>
<path d="M14.856 6.7148L12.2805 4.13806L11.5859 4.83286L13.8137 7.06195L11.5859 9.29089L12.2805 9.98552L14.856 7.40976C14.9487 7.3165 15 7.19297 15 7.06163C14.9995 6.93029 14.9486 6.80724 14.856 6.7148Z" fill="#99A7C2"/>
</svg>
