<svg width="16" height="16" viewBox="0 0 16 16" fill="none" xmlns="http://www.w3.org/2000/svg">
<g id="python">
<g id="Group">
<path id="Subtract" fill-rule="evenodd" clip-rule="evenodd" d="M11.7026 5.79574L10.847 5.79574V7.10478C10.847 7.10478 10.8931 8.66632 9.4363 8.66632H7.00698C7.00698 8.66632 5.64216 8.64228 5.64216 10.1032V12.5188C5.43274 14.4191 10.5663 14.4787 10.5237 12.768L10.5209 11.5119H8.07156V11.1348H11.4938C13.7438 11.3234 13.6007 5.7172 11.7026 5.79574ZM9.24701 13.0712C8.9539 12.8872 8.9539 12.4245 9.24701 12.2404C9.54011 12.0564 9.90848 12.2877 9.90848 12.6558C9.90848 13.024 9.54011 13.2553 9.24701 13.0712Z" fill="#E0AF00"/>
<path id="Subtract_2" fill-rule="evenodd" clip-rule="evenodd" d="M4.45814 11.2093H5.3137V9.90025C5.3137 9.90025 5.26758 8.33871 6.72442 8.33871H9.15374C9.15374 8.33871 10.5186 8.36275 10.5186 6.90185V4.29366C10.3024 2.50375 5.48021 2.64641 5.63699 4.2584L5.63699 5.49309H8.08916V5.87023H4.66692C2.35573 5.81698 2.60267 11.2093 4.45814 11.2093ZM6.47205 4.7646C6.17895 4.58054 6.17895 4.11788 6.47205 3.93381C6.76516 3.74975 7.13353 3.98108 7.13353 4.34921C7.13353 4.71734 6.76516 4.94867 6.47205 4.7646Z" fill="#00B6C2"/>
</g>
</g>
</svg>
