<svg width="16" height="16" viewBox="0 0 16 16" fill="none" xmlns="http://www.w3.org/2000/svg">
<g id="reason">
<path id="RE" fill-rule="evenodd" clip-rule="evenodd" d="M7.85605 9.11049C7.85605 8.90851 7.79181 8.75972 7.66333 8.6641C7.53485 8.56849 7.3297 8.52068 7.04788 8.52068H6.52567V9.73253H7.07274C7.59495 9.73253 7.85605 9.52518 7.85605 9.11049ZM3 4C3 3.44772 3.44772 3 4 3H12C12.5523 3 13 3.44772 13 4V12C13 12.5523 12.5523 13 12 13H4C3.44772 13 3 12.5523 3 12V4ZM7.96483 12.1304L7.06341 10.4706H6.52566V12.1304H5.60869V7.78261H7.14423C7.6913 7.78261 8.10056 7.89327 8.37203 8.11458C8.6435 8.3359 8.77923 8.65497 8.77923 9.07181C8.77923 9.36618 8.70255 9.6165 8.54921 9.82277C8.39586 10.029 8.18346 10.1741 7.91199 10.2579L8.99681 12.1304H7.96483ZM9.42888 7.78261V12.1304H12.5652V11.3956H10.3459V10.2966H12.2482V9.56171H10.3459V8.51746H12.4378V7.78261H9.42888Z" fill="#E75A5A"/>
</g>
</svg>
