<svg width="16" height="16" viewBox="0 0 16 16" fill="none" xmlns="http://www.w3.org/2000/svg">
<g id="rollup">
<g id="rollup_2">
<g id="XMLID_14_">
<path id="XMLID_15_" d="M11.9497 5.29256C11.9497 4.70379 11.7895 4.15182 11.5074 3.67345C10.7592 2.93223 9.13184 2.7605 8.72773 3.66994C8.31269 4.60216 9.42491 5.63951 9.91094 5.55716C10.5298 5.45202 9.80172 4.08523 9.80172 4.08523C10.7483 5.80248 10.5298 5.27679 8.81874 6.85385C7.10764 8.43091 5.36013 11.7585 5.10528 11.8987C5.09436 11.9057 5.08344 11.911 5.07069 11.9162H11.7822C11.9006 11.9162 11.977 11.7953 11.9242 11.6937L10.1694 8.3503C10.1312 8.27846 10.1585 8.18909 10.2313 8.14879C11.258 7.58105 11.9497 6.51566 11.9497 5.29256V5.29256Z" fill="url(#paint0_linear)"/>
</g>
<g id="XMLID_2_">
<path id="XMLID_10_" d="M11.9497 5.29256C11.9497 4.70379 11.7895 4.15182 11.5074 3.67345C10.7592 2.93223 9.13184 2.7605 8.72773 3.66994C8.31269 4.60216 9.42491 5.63951 9.91094 5.55716C10.5298 5.45202 9.80172 4.08523 9.80172 4.08523C10.7483 5.80248 10.5298 5.27679 8.81874 6.85385C7.10764 8.43091 5.36013 11.7585 5.10528 11.8987C5.09436 11.9057 5.08344 11.911 5.07069 11.9162H11.7822C11.9006 11.9162 11.977 11.7953 11.9242 11.6937L10.1694 8.3503C10.1312 8.27846 10.1585 8.18909 10.2313 8.14879C11.258 7.58105 11.9497 6.51566 11.9497 5.29256V5.29256Z" fill="url(#paint1_linear)"/>
</g>
<path id="XMLID_3_" d="M5.10505 11.8981C5.35989 11.7579 7.10726 8.42878 8.81833 6.85174C10.5294 5.27469 10.7477 5.80041 9.80126 4.08325C9.80126 4.08325 6.17893 8.97199 4.86844 11.39" fill="#8A2828"/>
<g id="XMLID_7_">
<path id="XMLID_12_" d="M5.61497 7.51795C8.06149 3.18805 8.38186 2.75173 9.65609 2.75173C10.326 2.75173 11.0013 3.04261 11.4382 3.55954C10.8429 2.63608 9.78897 2.01752 8.5821 2H4.4263C4.33892 2 4.26793 2.06834 4.26793 2.15245V10.2165C4.51549 9.60142 4.93599 8.72178 5.61497 7.51795Z" fill="#E75A5A"/>
</g>
<path id="XMLID_6_" d="M8.81832 6.85169C7.10726 8.42873 5.35989 11.7579 5.10505 11.898C4.85022 12.0382 4.42246 12.0557 4.19492 11.8104C3.95283 11.5493 3.57604 11.1271 5.61471 7.51749C8.06116 3.1877 8.38142 2.7514 9.6556 2.7514C10.3255 2.7514 11.0008 3.04227 11.4377 3.55917C11.4613 3.59596 11.485 3.63451 11.5086 3.67306C10.7605 2.93187 9.13317 2.76015 8.72917 3.66955C8.31415 4.60174 9.42632 5.63897 9.91232 5.55662C10.5312 5.45149 9.80311 4.08476 9.80311 4.08476C10.7478 5.8002 10.5294 5.27451 8.81836 6.85151L8.81832 6.85169Z" fill="url(#paint2_linear)"/>
<path id="XMLID_13_" opacity="0.3" d="M5.81494 7.7103C8.2614 3.38052 8.58166 2.94422 9.85584 2.94422C10.4074 2.94422 10.9625 3.14221 11.3849 3.49966C10.948 3.01956 10.3 2.75146 9.65563 2.75146C8.38145 2.75146 8.06109 3.18777 5.61473 7.51755C3.57605 11.1271 3.9529 11.5494 4.19495 11.8105C4.22953 11.8473 4.26958 11.8788 4.31144 11.9051C4.09848 11.6072 4.00383 10.9151 5.81498 7.71026L5.81494 7.7103Z" fill="url(#paint3_linear)"/>
</g>
</g>
<defs>
<linearGradient id="paint0_linear" x1="6.67121" y1="9.13245" x2="9.50791" y2="9.5168" gradientUnits="userSpaceOnUse">
<stop stop-color="#FF6533"/>
<stop offset="0.157" stop-color="#FF5633"/>
<stop offset="0.434" stop-color="#FF4333"/>
<stop offset="0.714" stop-color="#FF3733"/>
<stop offset="1" stop-color="#FF3333"/>
</linearGradient>
<linearGradient id="paint1_linear" x1="5.02257" y1="9.66892" x2="10.6045" y2="12.1774" gradientUnits="userSpaceOnUse">
<stop stop-color="#AC4142"/>
<stop offset="1" stop-color="#D14748"/>
</linearGradient>
<linearGradient id="paint2_linear" x1="6.74395" y1="7.75558" x2="7.86221" y2="8.2381" gradientUnits="userSpaceOnUse">
<stop stop-color="#F4BF75"/>
<stop offset="1" stop-color="#FB8840"/>
</linearGradient>
<linearGradient id="paint3_linear" x1="3.56879" y1="2.63641" x2="1.95833" y2="13.7355" gradientUnits="userSpaceOnUse">
<stop stop-color="white"/>
<stop offset="1" stop-color="white" stop-opacity="0.01"/>
</linearGradient>
</defs>
</svg>
