<svg width="16" height="16" viewBox="0 0 16 16" fill="none" xmlns="http://www.w3.org/2000/svg">
<path opacity="0.8" fill-rule="evenodd" clip-rule="evenodd" d="M14.9167 6.66667H9.08333C7.79466 6.66667 6.75 7.71134 6.75 9V14.6H2.31666C1.94536 14.6 1.58926 14.4525 1.32671 14.1899C1.06416 13.9274 0.916662 13.5713 0.916662 13.2V3.4C0.916662 3.0287 1.06416 2.6726 1.32671 2.41005C1.58926 2.1475 1.94536 2 2.31666 2H5.81666L7.21666 4.1H13.5167C13.888 4.1 14.2441 4.2475 14.5066 4.51005C14.7692 4.7726 14.9167 5.1287 14.9167 5.5L14.9167 6.66667Z" fill="#434F65"/>
<path fill-rule="evenodd" clip-rule="evenodd" d="M9 8C8.44772 8 8 8.44772 8 9V14C8 14.5523 8.44772 15 9 15H14C14.5523 15 15 14.5523 15 14V9C15 8.44772 14.5523 8 14 8H9ZM12.916 10.2774C13.0692 10.0476 13.0071 9.73715 12.7774 9.58397C12.5476 9.4308 12.2372 9.49289 12.084 9.72265L10.084 12.7226C9.9308 12.9524 9.99289 13.2628 10.2226 13.416C10.4524 13.5692 10.7628 13.5071 10.916 13.2774L12.916 10.2774Z" fill="#69A7D3"/>
</svg>
