<svg width="16" height="16" viewBox="0 0 16 16" fill="none" xmlns="http://www.w3.org/2000/svg">
<g id="ruby">
<g id="ruby-rough">
<g clip-path="url(#clip0)">
<path id="Vector" d="M9.43964 4.82807C8.61485 7.03414 7.0761 8.55949 4.8704 9.34147C3.78937 9.72473 2.89316 8.78748 3.69544 7.1832C4.5444 5.48559 5.84189 4.24556 7.5828 3.49411C9.14583 2.96773 9.76432 3.57971 9.43964 4.82807ZM9.11124 6.49138L9.11171 6.49232L12.7563 6.23679C12.6655 6.1502 12.6144 6.09341 12.5552 6.04609L9.30289 3.43543C9.19594 3.34884 9.12969 3.21256 8.98679 3.02328C9.451 3.02328 9.82625 3.01902 10.2015 3.02422C10.6544 3.03085 11.1181 2.98684 11.5582 3.06823C12.5098 3.24426 13.0175 3.858 12.9995 4.82523C12.983 5.73189 12.4397 12.4618 12.4397 12.4618L10.9752 11.1567C10.9752 11.1567 10.8616 11.0299 10.793 10.9859C10.2058 10.612 9.96064 10.0546 9.82719 9.38832C9.5918 8.26397 9.24851 7.08225 9.11124 6.49138ZM6.2337 9.17112C7.49336 9.57429 8.74309 9.97462 10.0297 10.3863C9.36014 11.062 8.64797 11.6285 7.85205 12.1376L12.1066 12.4627L12.1071 12.5171C12.1071 12.5171 5.20496 12.987 4.91867 12.9818C3.70443 12.9596 3.0164 12.2943 3.00078 11.0762C2.99179 10.392 3.0623 9.70679 3.10583 9.02254C3.10915 8.97096 3.18297 8.92364 3.22413 8.87442C3.28518 8.92884 3.37414 8.97143 3.40395 9.03957C3.76642 9.87998 4.57654 11.7931 4.57654 11.7931C4.57654 11.7931 5.07767 11.742 5.30859 11.6824C5.39944 11.6592 5.50497 11.5485 5.53431 11.4557C5.83952 10.5232 6.12744 9.40054 6.2337 9.17112Z" fill="#E75A5A"/>
</g>
</g>
</g>
<defs>
<clipPath id="clip0">
<rect x="3" y="3" width="10" height="10" fill="white"/>
</clipPath>
</defs>
</svg>
