<svg width="16" height="16" viewBox="0 0 16 16" fill="none" xmlns="http://www.w3.org/2000/svg">
<g id="sass">
<g clip-path="url(#clip0)">
<path id="Vector" d="M5.24992 9.04903L3.72673 9.88549C2.84729 9.02384 2.01758 8.60495 1.53425 7.95246C0.917679 7.12009 1.11537 6.02722 2.47843 4.948C5.4461 2.68785 8.3302 2.60204 9.0315 3.48415C9.67606 4.2949 8.56496 6.05433 6.67961 6.68734C5.52354 7.07818 4.42029 7.09383 3.85038 6.44872C3.77364 6.3424 3.6552 6.43716 3.69505 6.53711C4.0708 7.6624 5.79487 7.58687 7.08787 7.27444C9.4983 6.692 11.3058 3.59891 9.09802 2.39163C5.87256 0.881668 0.247315 4.31841 0.00739265 6.73588C-0.129272 8.11292 1.65566 9.08645 3.14576 10.2064C1.97268 10.8331 1.11461 11.4141 0.822387 11.913C0.525514 12.3821 0.420255 12.8818 0.641504 13.4152C1.05987 14.3586 2.51781 13.9169 3.05991 13.5312C3.92214 12.9178 4.59708 11.7054 4.02104 10.2963L4.8994 9.79095L4.91268 9.8022C4.89684 9.85431 4.87998 9.90643 4.86516 9.95957C4.59137 10.8429 4.67855 11.6771 5.10736 12.2927C5.28971 12.5544 5.6893 12.5826 5.918 12.381C6.15164 12.1751 6.33714 11.6663 6.63362 11.0311C6.55897 11.6956 6.61549 12.249 7.01123 12.2906C7.25764 12.3165 7.4817 12.0808 7.66884 11.7674C8.16126 10.9426 8.62463 9.92106 9.08525 8.82522C9.1768 9.27773 9.31976 9.69349 9.52059 10.0679C9.57015 10.167 9.56453 10.2314 9.49555 10.3142L8.6407 11.3647C8.23017 11.8434 8.37424 12.091 8.9248 12.0566C9.7044 11.9867 10.6642 11.4807 10.4414 10.4399C10.357 10.0512 10.2509 9.99573 10.3361 9.89366C10.6652 9.42408 10.9808 8.84995 11.2419 8.34052C11.3267 8.78149 11.4582 9.21969 11.6866 9.60496C11.1372 10.0988 10.7369 10.6181 10.7582 11.2094C10.7893 11.4434 10.9809 11.5952 11.2109 11.542C11.8173 11.4501 12.5131 10.8921 12.5981 10.4603C12.6464 10.2147 12.6302 9.97345 12.496 9.60139C14.9546 8.77869 16.4256 10.6174 15.2409 11.4261C15.1929 11.4536 15.1439 11.4829 15.1189 11.5159C15.0811 11.5661 15.098 11.6243 15.1698 11.6238C15.2865 11.623 15.3794 11.5661 15.4645 11.5159C16.6369 10.8248 15.7814 8.9091 13.898 8.87939C13.3428 8.86867 12.8234 8.97456 12.3105 9.20845C11.9865 8.67436 11.8796 8.18403 11.9697 7.78541C12.0146 7.59788 12.0739 7.41342 12.1291 7.22794C12.154 7.13311 12.1459 7.04593 11.9462 7.00312C11.7223 6.97093 11.5021 6.98932 11.2855 7.05217C11.1249 7.09621 11.1463 7.20227 11.0933 7.34547C10.968 7.99233 10.4943 8.71819 10.0505 9.48795C9.89287 9.20578 9.76077 8.86844 9.79047 8.43181C9.80538 8.21251 9.90005 7.92669 9.97484 7.69343C10.01 7.59577 9.9772 7.53099 9.79344 7.47985C9.4795 7.4367 9.17262 7.4941 9.04323 7.57372C8.94152 7.63632 8.91476 8.00257 8.77969 8.30302C8.22362 9.52397 7.6201 10.9921 7.36533 11.3448C7.20989 11.2535 7.50014 10.2385 7.74191 9.32393C7.82681 9.05047 7.48595 8.88004 7.21868 9.07356C7.47704 7.6937 6.28251 7.78238 5.34649 8.96574C5.32044 8.99896 5.2862 9.0291 5.24992 9.04903ZM3.54252 11.3369C3.49978 11.9066 3.24233 12.3683 2.82027 12.7418C1.73129 13.6142 1.09751 13.0508 1.64555 12.1087C1.8759 11.6237 2.6464 11.1291 3.46613 10.6335C3.52949 10.8686 3.56027 11.1003 3.54252 11.3369ZM5.56876 11.5109C5.2562 10.7622 5.6722 9.34727 6.39602 8.82216C6.66069 8.66654 6.77743 8.70626 6.75702 8.86074C6.72687 9.04265 6.68931 9.22481 6.63617 9.40109C6.45223 10.0112 6.21667 10.6029 5.9617 11.1859C5.77358 11.5847 5.63921 11.6775 5.56876 11.5109ZM8.94933 11.6545C9.21196 11.3479 9.47409 11.0418 9.73724 10.7342C9.76994 11.076 9.18948 11.7582 8.94933 11.6545ZM11.2694 11.1296C11.2259 11.1392 11.2081 11.109 11.2333 10.983C11.3396 10.6075 11.5366 10.2823 11.8466 10.0123C11.9907 10.4064 11.8326 10.9187 11.2694 11.1296Z" fill="#E382BC"/>
</g>
</g>
<defs>
<clipPath id="clip0">
<path d="M0 0H16V16H0V0Z" fill="white"/>
</clipPath>
</defs>
</svg>
