<svg width="16" height="16" viewBox="0 0 16 16" fill="none" xmlns="http://www.w3.org/2000/svg">
<g id="scala">
<g id="scala-icon">
<path id="XMLID_1_" d="M12.4496 14H3.46277C2.65693 14 2 13.3382 2 12.5265V3.47353C2 2.66176 2.65693 2 3.46277 2H12.4584C13.2642 2 13.9212 2.66176 13.9212 3.47353V12.5353C13.9124 13.3382 13.2555 14 12.4496 14Z" fill="#DC332D"/>
<g id="shadow">
<g id="Clipped">
<path id="XMLID_2_" fill-rule="evenodd" clip-rule="evenodd" d="M12.4496 14H3.46277C2.65693 14 2 13.3382 2 12.5265V3.47353C2 2.66176 2.65693 2 3.46277 2H12.4584C13.2642 2 13.9212 2.66176 13.9212 3.47353V12.5353C13.9124 13.3382 13.2555 14 12.4496 14Z" fill="#E75A5A"/>
<mask id="mask0" mask-type="alpha" maskUnits="userSpaceOnUse" x="2" y="2" width="12" height="12">
<path id="XMLID_2__2" fill-rule="evenodd" clip-rule="evenodd" d="M12.4496 14H3.46277C2.65693 14 2 13.3382 2 12.5265V3.47353C2 2.66176 2.65693 2 3.46277 2H12.4584C13.2642 2 13.9212 2.66176 13.9212 3.47353V12.5353C13.9124 13.3382 13.2555 14 12.4496 14Z" fill="white"/>
</mask>
<g mask="url(#mask0)">
<path id="Shape" d="M5.19708 6.88822L5.97664 7.67351L5.19708 9.85293L6.03796 10.6912L5.19708 12.8088L6.38832 14H13.9124V6.41175L10.7153 3.19116V3.79999L5.19708 6.88822Z" fill="#AC4142"/>
</g>
</g>
</g>
<g id="logo">
<g id="Group" opacity="0.6">
<path id="Shape_2" d="M5.19708 6.8882C5.19708 6.8882 10.7066 7.44409 10.7066 8.37056V6.14703C10.7066 6.14703 10.7066 5.22056 5.19708 4.66467V5.52938V6.8882Z" fill="white"/>
<path id="Shape_3" d="M5.19708 9.85292C5.19708 9.85292 10.7066 10.4088 10.7066 11.3353V9.11175C10.7066 9.11175 10.7066 8.18528 5.19708 7.62939V9.85292Z" fill="white"/>
</g>
<path id="Shape_4" d="M10.7153 3.19116V5.41469C10.7153 5.41469 10.7153 6.34116 5.20585 6.89704V4.66469C5.19709 4.66469 10.7153 4.11763 10.7153 3.19116" fill="white"/>
<path id="Shape_5" d="M5.19708 7.62939C5.19708 7.62939 10.7066 7.0735 10.7066 6.14703V8.37056C10.7066 8.37056 10.7066 9.29703 5.19708 9.85292V7.62939Z" fill="white"/>
<path id="Shape_6" d="M5.19708 12.8088V10.5853C5.19708 10.5853 10.7066 10.0294 10.7066 9.10291V11.3264C10.7153 11.3353 10.7153 12.2529 5.19708 12.8088" fill="white"/>
</g>
</g>
</g>
</svg>
