<svg width="16" height="16" viewBox="0 0 16 16" fill="none" xmlns="http://www.w3.org/2000/svg">
<g id="sketch">
<g id="Group">
<path id="Bottom right" fill-rule="evenodd" clip-rule="evenodd" d="M11.2269 6.56696H13.4435L8 12.9879L11.2269 6.56696Z" fill="#E2AC1D"/>
<path id="Bottom left" fill-rule="evenodd" clip-rule="evenodd" d="M4.7731 6.56702H2.55652L8.00002 12.9895L4.7731 6.56702Z" fill="#E2AC1D"/>
<path id="Bottom center" fill-rule="evenodd" clip-rule="evenodd" d="M4.77313 6.56708L11.2263 6.56873L8.0002 12.9889L4.77313 6.56708Z" fill="#E0AF00"/>
<path id="Top rigth" fill-rule="evenodd" clip-rule="evenodd" d="M11.0509 3.33405L11.2272 6.56682L8.00879 3L11.0509 3.33405Z" fill="#F2C140"/>
<path id="Right" fill-rule="evenodd" clip-rule="evenodd" d="M11.0509 3.33411L11.2272 6.56688H13.4435L11.0509 3.33411Z" fill="#F3D791"/>
<path id="Left" fill-rule="evenodd" clip-rule="evenodd" d="M4.94908 3.33405L4.7728 6.56682H2.55655L4.94908 3.33405Z" fill="#F3D791"/>
<path id="Top let" fill-rule="evenodd" clip-rule="evenodd" d="M4.94971 3.33365L4.77344 6.56642L8.00858 3L4.94971 3.33365Z" fill="#F2C140"/>
<path id="Top center" fill-rule="evenodd" clip-rule="evenodd" d="M4.7735 6.56682H11.2267L8.00852 3L4.7735 6.56682Z" fill="#FCF5E3"/>
</g>
</g>
</svg>
