<svg width="16" height="16" viewBox="0 0 16 16" fill="none" xmlns="http://www.w3.org/2000/svg">
<g id="storybook">
<path id="Subtract" fill-rule="evenodd" clip-rule="evenodd" d="M4.77647 13.1667L4.28235 2.91671L10.4605 2.47016L10.2941 4.04704L11.2487 3.53795L12.0441 4.04704V2.35657L11.9719 2.36092L12.3529 2.33337V13.5417L4.77647 13.1667ZM9.00282 6.72004L10.5939 6.68004C10.6334 5.12004 9.83294 4.35004 8.43953 4.35004C7.04612 4.35004 6.26541 5.15004 6.26541 6.35004C6.26541 7.55219 7.14819 8.07611 7.89821 8.52123C8.45213 8.84998 8.93365 9.13576 8.93365 9.62004C8.93365 9.94004 8.78541 10.13 8.45929 10.13C8.03435 10.13 7.86635 9.85004 7.88612 9.07004H6.216C6.08753 11 7.20423 11.44 8.47906 11.44C9.71435 11.44 10.6828 10.86 10.6828 9.60004C10.6828 8.28544 9.75021 7.76301 8.97964 7.33135C8.4372 7.02749 7.97506 6.76861 7.97506 6.31004C7.97506 5.86004 8.29129 5.80004 8.47906 5.80004C8.6767 5.80004 9.03247 5.88004 9.00282 6.72004Z" fill="#E382BC"/>
</g>
</svg>
