<svg width="16" height="16" viewBox="0 0 16 16" fill="none" xmlns="http://www.w3.org/2000/svg">
<g id="stylus">
<g id="Group 2">
<path id="Shape" fill-rule="evenodd" clip-rule="evenodd" d="M12.7667 2.34511C12.8262 2.39251 12.867 2.45582 12.889 2.53487C12.911 2.61393 12.914 2.70409 12.8984 2.80525C12.8827 2.90653 12.8467 3.00769 12.7902 3.10879C12.7776 3.12147 12.762 3.12147 12.7431 3.10879C12.7244 3.09612 12.7117 3.08038 12.7055 3.0614C12.718 2.98547 12.6915 2.92227 12.6255 2.87163C12.5596 2.82111 12.4576 2.7957 12.3197 2.7957C12.0623 2.7957 11.8036 2.89218 11.5433 3.08507C11.2828 3.27807 11.0303 3.53271 10.7856 3.84875C10.5409 4.16508 10.3119 4.52875 10.0986 4.93976C9.88523 5.35089 9.70013 5.77463 9.54334 6.21093C9.38648 6.64728 9.26247 7.08052 9.17159 7.51057C9.08064 7.94073 9.03523 8.33276 9.03523 8.687C9.03523 8.87659 9.08845 8.97156 9.19524 8.97156C9.27051 8.97156 9.34417 8.9399 9.41634 8.87659C9.48839 8.81345 9.5717 8.71865 9.6658 8.59203C9.68457 8.57953 9.7018 8.58109 9.71747 8.59683C9.73309 8.61275 9.73779 8.63323 9.73165 8.65841C9.60603 8.84817 9.45871 9.00628 9.28928 9.13273C9.11991 9.25935 8.96605 9.32249 8.82814 9.32249C8.70889 9.32249 8.62582 9.28771 8.5788 9.21809C8.53178 9.14859 8.50818 9.06016 8.50818 8.95252C8.50818 8.65528 8.57082 8.28363 8.69644 7.83789C8.82188 7.39199 8.98959 6.92091 9.19995 6.42436C9.41014 5.92793 9.65323 5.43306 9.92932 4.93976C10.2054 4.44646 10.4924 4.00223 10.7905 3.60696C11.0884 3.21169 11.3881 2.89067 11.6893 2.64396C11.9902 2.39725 12.2725 2.27393 12.5361 2.27393C12.6302 2.27393 12.707 2.29771 12.7667 2.34511Z" fill="#3DB931" stroke="#3DB931"/>
<path id="Shape_2" fill-rule="evenodd" clip-rule="evenodd" d="M3.47327 13.8598C3.41373 13.8124 3.37297 13.7491 3.35092 13.6701C3.32905 13.5909 3.32595 13.5009 3.34151 13.3997C3.3573 13.2984 3.3933 13.1973 3.44973 13.0961C3.46236 13.0834 3.47798 13.0834 3.49681 13.0961C3.51559 13.1087 3.52822 13.1246 3.53442 13.1435C3.52196 13.2195 3.54854 13.2827 3.61445 13.3333C3.6803 13.3838 3.78233 13.4091 3.92029 13.4091C4.17762 13.4091 4.43643 13.3126 4.69675 13.1198C4.95711 12.9269 5.20967 12.6723 5.45437 12.3563C5.69906 12.0399 5.92814 11.6763 6.14137 11.2652C6.35472 10.8541 6.53988 10.4304 6.69662 9.99401C6.85347 9.55766 6.97748 9.12442 7.06842 8.69437C7.15936 8.26421 7.20478 7.87218 7.20478 7.518C7.20478 7.32824 7.15156 7.23344 7.04477 7.23344C6.96944 7.23344 6.89578 7.26493 6.82367 7.32824C6.75162 7.39138 6.66831 7.48634 6.57421 7.61291C6.55544 7.62541 6.53821 7.62385 6.52254 7.60811C6.50692 7.59219 6.50221 7.57165 6.50836 7.54636C6.63398 7.35677 6.7813 7.19849 6.95073 7.07204C7.12009 6.94559 7.2739 6.88245 7.41187 6.88245C7.53111 6.88245 7.61419 6.91705 7.66121 6.98667C7.70823 7.05629 7.73183 7.14478 7.73183 7.25242C7.73183 7.54966 7.66919 7.92114 7.54357 8.36705C7.41813 8.81295 7.25042 9.28404 7.04006 9.78058C6.82987 10.277 6.58678 10.7719 6.31068 11.2652C6.03464 11.7585 5.74758 12.2027 5.44955 12.598C5.15163 12.9933 4.85193 13.3143 4.55074 13.5609C4.24973 13.8076 3.96743 13.931 3.7039 13.931C3.60974 13.931 3.53298 13.9072 3.47327 13.8598Z" fill="#3DB931" stroke="#3DB931"/>
</g>
</g>
</svg>
