<svg width="16" height="16" viewBox="0 0 16 16" fill="none" xmlns="http://www.w3.org/2000/svg">
<g id="tcl">
<path id="Shape" fill-rule="evenodd" clip-rule="evenodd" d="M12.3877 2.98959C12.2098 2.65835 11.9487 2.46881 11.6045 2.42096C11.2602 2.37312 10.8739 2.43257 10.4457 2.59932C10.3807 2.62042 10.3174 2.64467 10.256 2.67206L10.0612 2.75891C9.68381 2.94346 9.29197 3.18387 8.88567 3.48013C8.47938 3.77639 8.08781 4.10288 7.71097 4.45961C7.33413 4.81633 6.98337 5.18824 6.65871 5.57532C6.33404 5.96241 6.05793 6.3423 5.83039 6.71499C5.84505 6.86458 5.85177 7.01981 5.85056 7.18068C5.84934 7.34155 5.84264 7.48621 5.83044 7.61466C5.82644 7.65797 5.82225 7.69269 5.81789 7.71881C5.81353 7.74494 5.81117 7.77464 5.81082 7.80791C5.79974 7.87068 5.7929 7.92077 5.79031 7.9582L5.78704 8.01564L5.78482 7.97326C5.78482 7.97326 5.78476 7.92598 5.78462 7.83142C5.78828 7.82138 5.78922 7.81071 5.78745 7.79941C5.78569 7.7881 5.78846 7.77241 5.79577 7.75233C5.78538 7.74855 5.78201 7.74164 5.78567 7.7316L5.79115 7.71654C5.78246 7.61318 5.76243 7.47834 5.73108 7.31201C5.69973 7.14568 5.67799 7.01554 5.66587 6.92159C5.5857 7.01464 5.51286 7.10467 5.44737 7.19169L5.24861 7.45299C5.28866 7.72268 5.2931 8.01849 5.26193 8.34043L5.21518 8.82334L5.21845 8.7659C5.21845 8.7659 5.21856 8.70199 5.21877 8.57415C5.21898 8.44632 5.19778 8.2915 5.15515 8.1097C5.11252 7.92789 5.08777 7.7828 5.08091 7.67442C4.94498 7.85803 4.84285 8.01238 4.77454 8.13745C4.70623 8.26253 4.67676 8.34348 4.68615 8.38029C4.70215 8.46358 4.70895 8.56305 4.70655 8.67872C4.70415 8.79439 4.70021 8.92335 4.69475 9.06562C4.66204 9.37563 4.62223 9.67488 4.5753 9.96337L4.50394 10.3957L4.46111 10.5134C4.36508 10.7449 4.27592 10.9818 4.19364 11.224C4.11136 11.4663 4.041 11.699 3.98256 11.9221C3.90595 12.2275 3.84495 12.5052 3.79955 12.7552C3.75415 13.0051 3.73695 13.2099 3.74795 13.3696L3.85558 13.3586C3.86043 13.0605 3.90689 12.736 3.99493 12.385C4.08298 12.034 4.21027 11.6611 4.37679 11.2662C4.61822 10.6655 4.94371 10.0317 5.35326 9.36499C5.7628 8.69826 6.23856 8.03039 6.78051 7.3614C7.21439 6.86412 7.66026 6.40461 8.11811 5.98285C8.57596 5.5611 9.02561 5.18611 9.46706 4.85787C9.90852 4.52964 10.3401 4.25075 10.7618 4.02121C11.1835 3.79168 11.5758 3.62072 11.9387 3.50835C11.5931 3.63769 11.1922 3.87193 10.7357 4.21105C10.2793 4.55017 9.82657 4.91837 9.37763 5.31565C8.92869 5.71293 8.51043 6.10468 8.12286 6.4909C7.73528 6.87712 7.44084 7.18922 7.23954 7.42721C6.77138 7.95606 6.34827 8.47929 5.97022 8.99689C5.59217 9.51448 5.25076 10.0344 4.946 10.5566C5.30778 10.0999 5.73434 9.82774 6.2257 9.7401L6.96273 9.60863L7.49129 9.29255C7.49129 9.29255 7.91711 9.00624 8.76877 8.43363C8.55816 8.4124 8.30943 8.38583 8.02259 8.35391C7.73574 8.32199 7.52942 8.30516 7.4036 8.30343C7.21643 8.31276 7.09307 8.32045 7.03353 8.32649L6.94422 8.33556L7.68356 8.22198C7.68356 8.22198 8.17799 8.19657 9.16686 8.14575C9.62856 7.7922 10.1002 7.40318 10.5818 6.97871C11.0635 6.55425 11.4768 6.11344 11.8218 5.65631C12.1668 5.19917 12.405 4.74186 12.5362 4.28437C12.6674 3.82688 12.6176 3.39516 12.3868 2.98923V2.98923L12.3877 2.98959Z" fill="#E0AF00"/>
</g>
</svg>
