<svg width="16" height="16" viewBox="0 0 16 16" fill="none" xmlns="http://www.w3.org/2000/svg">
<g id="tune">
<g id="Group">
<path id="Vector" d="M5.85715 5.85719V3.00005C5.85715 2.57148 5.57143 2.28577 5.14286 2.28577C4.71429 2.28577 4.42857 2.57148 4.42857 3.00005V5.85719C4.42857 6.28577 4.71429 6.57148 5.14286 6.57148C5.57143 6.57148 5.85715 6.28577 5.85715 5.85719Z" fill="#69A7D3"/>
<path id="Vector_2" d="M3 10.1429C3 11.0714 3.64286 11.8571 4.42857 12.1429C4.42857 12.2143 4.42857 12.2143 4.42857 12.2857V13C4.42857 13.4286 4.71429 13.7143 5.14286 13.7143C5.57143 13.7143 5.85714 13.4286 5.85714 13V12.2857C5.85714 12.2143 5.85714 12.2143 5.85714 12.1429C6.71429 11.8571 7.28571 11.0714 7.28571 10.1429C7.28571 8.92857 6.35714 8 5.14286 8C3.92857 8 3 8.92857 3 10.1429Z" fill="#69A7D3"/>
<path id="Vector_3" d="M10.1429 10.1429V13C10.1429 13.4286 10.4286 13.7143 10.8571 13.7143C11.2857 13.7143 11.5714 13.4286 11.5714 13V10.1429C11.5714 9.7143 11.2857 9.42859 10.8571 9.42859C10.4286 9.42859 10.1429 9.7143 10.1429 10.1429Z" fill="#69A7D3"/>
<path id="Vector_4" d="M8.71428 5.8572C8.71428 7.07148 9.64285 8.00005 10.8571 8.00005C12.0714 8.00005 13 7.07148 13 5.8572C13 4.92862 12.3571 4.14291 11.5714 3.8572C11.5714 3.78577 11.5714 3.78577 11.5714 3.71434V3.00005C11.5714 2.57148 11.2857 2.28577 10.8571 2.28577C10.4286 2.28577 10.1429 2.57148 10.1429 3.00005V3.71434C10.1429 3.78577 10.1429 3.78577 10.1429 3.8572C9.35714 4.14291 8.71428 4.92862 8.71428 5.8572Z" fill="#69A7D3"/>
</g>
</g>
</svg>
