<svg width="16" height="16" viewBox="0 0 16 16" fill="none" xmlns="http://www.w3.org/2000/svg">
<g id="typescript_def">
<path id="Combined Shape" d="M12 2.5H4V3.5H12V2.5ZM2.5 4V12H3.5V4H2.5ZM4 13.5H12V12.5H4V13.5ZM13.5 12V4H12.5V12H13.5ZM12 13.5C12.8284 13.5 13.5 12.8284 13.5 12H12.5C12.5 12.2761 12.2761 12.5 12 12.5V13.5ZM2.5 12C2.5 12.8284 3.17157 13.5 4 13.5V12.5C3.72386 12.5 3.5 12.2761 3.5 12H2.5ZM4 2.5C3.17157 2.5 2.5 3.17157 2.5 4H3.5C3.5 3.72386 3.72386 3.5 4 3.5V2.5ZM12 3.5C12.2761 3.5 12.5 3.72386 12.5 4H13.5C13.5 3.17157 12.8284 2.5 12 2.5V3.5Z" fill="#5F7CE3"/>
<path id="Shape" fill-rule="evenodd" clip-rule="evenodd" d="M8.86927 10.6552C8.99392 10.7197 9.15259 10.7766 9.3453 10.8261C9.538 10.8756 9.74007 10.9004 9.95153 10.9004C10.1741 10.9004 10.3437 10.8607 10.4604 10.7814C10.577 10.7021 10.6354 10.598 10.6354 10.4691C10.6354 10.3501 10.5798 10.2484 10.4687 10.164C10.3576 10.0796 10.1718 9.9977 9.91142 9.91837C9.55345 9.79936 9.26457 9.64434 9.04478 9.4533C8.825 9.26225 8.71511 9.02297 8.71511 8.73546C8.71511 8.39812 8.86163 8.11552 9.15468 7.88767C9.44772 7.65981 9.84927 7.54573 10.3593 7.54541C10.6034 7.54541 10.8164 7.56524 10.9984 7.60491C11.1803 7.64458 11.3362 7.69171 11.4661 7.74629L11.2463 8.46794C11.1595 8.42827 11.04 8.38606 10.888 8.34131C10.7359 8.29657 10.5541 8.2742 10.3427 8.2742C10.1312 8.2742 9.97392 8.31259 9.8708 8.38939C9.76768 8.46619 9.71612 8.55663 9.71612 8.66072C9.71612 8.78481 9.77844 8.88398 9.90309 8.95824C10.0277 9.03249 10.2312 9.11929 10.5135 9.21862C10.8985 9.34746 11.182 9.5074 11.364 9.69845C11.5459 9.88949 11.6367 10.1262 11.6364 10.4087C11.6364 10.7409 11.494 11.0286 11.2093 11.2717C10.9246 11.5148 10.4866 11.6363 9.89528 11.6363C9.64563 11.6363 9.4097 11.6103 9.18749 11.5583C8.96527 11.5062 8.79167 11.4504 8.66667 11.3907L8.87031 10.6543L8.86927 10.6552Z" fill="#4C71F6"/>
<path id="T" fill-rule="evenodd" clip-rule="evenodd" d="M6.54 11.6363V8.23746H5.27274V7.54541H8.66668V8.23746H7.40232V11.6363H6.54Z" fill="#4C71F6"/>
</g>
</svg>
