<svg width="16" height="16" viewBox="0 0 16 16" fill="none" xmlns="http://www.w3.org/2000/svg">
<g id="webpack">
<g id="webpack_2">
<path id="Shape" fill-rule="evenodd" clip-rule="evenodd" d="M7.8761 3C7.75453 3 7.63856 3.03019 7.54593 3.09088L2.97201 5.33613C2.78675 5.42211 2.66557 5.58944 2.66557 5.78162V11.2184C2.66557 11.4106 2.78675 11.5779 2.97201 11.6639L7.54593 13.9091C7.63856 13.9698 7.75453 14 7.8761 14C7.99768 14 8.11365 13.9698 8.20628 13.9091L12.7802 11.6639C12.9655 11.5779 13.0866 11.4106 13.0866 11.2184V5.78162C13.0866 5.58944 12.9655 5.42211 12.7802 5.33613L8.20628 3.09088C8.11365 3.03019 7.99768 3 7.8761 3ZM7.8761 4.08756L11.9287 6.07994V7.14377H11.9197V10.6474H11.9287V10.92L7.8761 12.9124L3.82347 10.92V6.07992L7.8761 4.08756ZM5.03903 6.57086L7.87611 5.13955L10.7132 6.57086L7.87611 8.00216L5.03903 6.57086ZM4.98137 7.70879V9.51941L7.29716 10.687V8.87635L4.98137 7.70879ZM8.45506 8.87635L10.7708 7.70879V9.51941L8.45506 10.687V8.87635Z" fill="#00B6C2"/>
<path id="Shape_2" fill-rule="evenodd" clip-rule="evenodd" d="M7.87611 5.13953L5.03903 6.57083L7.87611 8.00214L10.7132 6.57083L7.87611 5.13953ZM4.98137 7.70876V10.4044L7.29716 11.572V8.87632L4.98137 7.70876ZM8.45506 8.87632L10.7708 7.70876V10.4044L8.45506 11.572V8.87632Z" fill="#4C71F6"/>
</g>
</g>
</svg>
